<?xml version="1.0" encoding="UTF-8" standalone="no"?>
<!-- Created with Inkscape (http://www.inkscape.org/) -->

<svg
   xmlns:dc="http://purl.org/dc/elements/1.1/"
   xmlns:cc="http://creativecommons.org/ns#"
   xmlns:rdf="http://www.w3.org/1999/02/22-rdf-syntax-ns#"
   xmlns:svg="http://www.w3.org/2000/svg"
   xmlns="http://www.w3.org/2000/svg"
   xmlns:sodipodi="http://sodipodi.sourceforge.net/DTD/sodipodi-0.dtd"
   xmlns:inkscape="http://www.inkscape.org/namespaces/inkscape"
   width="31.358608mm"
   height="43.96191mm"
   viewBox="0 0 31.358608 43.96191"
   version="1.1"
   id="svg8"
   inkscape:version="0.92.3 (2405546, 2018-03-11)"
   sodipodi:docname="simsapa-logo-outline.svg">
  <defs
     id="defs2" />
  <sodipodi:namedview
     id="base"
     pagecolor="#ffffff"
     bordercolor="#666666"
     borderopacity="1.0"
     inkscape:pageopacity="0.0"
     inkscape:pageshadow="2"
     inkscape:zoom="2.8"
     inkscape:cx="77.495358"
     inkscape:cy="55.38326"
     inkscape:document-units="mm"
     inkscape:current-layer="g903"
     showgrid="false"
     inkscape:snap-object-midpoints="true"
     showguides="false"
     inkscape:guide-bbox="true"
     inkscape:snap-bbox="true"
     inkscape:snap-bbox-midpoints="true"
     fit-margin-top="1"
     fit-margin-left="1"
     fit-margin-right="1"
     fit-margin-bottom="1"
     inkscape:window-width="1920"
     inkscape:window-height="1043"
     inkscape:window-x="0"
     inkscape:window-y="37"
     inkscape:window-maximized="0"
     inkscape:snap-page="true"
     inkscape:bbox-paths="false"
     inkscape:bbox-nodes="false">
    <sodipodi:guide
       position="15.679305,4.92518"
       orientation="1,0"
       id="guide4656"
       inkscape:locked="false" />
    <sodipodi:guide
       position="1,4.7767967"
       orientation="1,0"
       id="guide867"
       inkscape:locked="false" />
    <sodipodi:guide
       position="30.35861,4.7767966"
       orientation="1,0"
       id="guide869"
       inkscape:locked="false" />
  </sodipodi:namedview>
  <metadata
     id="metadata5">
    <rdf:RDF>
      <cc:Work
         rdf:about="">
        <dc:format>image/svg+xml</dc:format>
        <dc:type
           rdf:resource="http://purl.org/dc/dcmitype/StillImage" />
        <dc:title></dc:title>
      </cc:Work>
    </rdf:RDF>
  </metadata>
  <g
     style="display:inline"
     transform="translate(-40.280082,-104.07617)"
     id="g903"
     inkscape:groupmode="layer"
     inkscape:label="Layer 1 - text as outline (black)">
    <g
       aria-label="simsapa"
       style="font-style:normal;font-variant:normal;font-weight:300;font-stretch:normal;font-size:9.87777805px;line-height:5.29166651px;font-family:'Cloister Black';-inkscape-font-specification:'Cloister Black, Light';font-variant-ligatures:normal;font-variant-caps:normal;font-variant-numeric:normal;font-feature-settings:normal;text-align:start;letter-spacing:0px;word-spacing:0px;writing-mode:lr-tb;text-anchor:start;fill:#000000;fill-opacity:1;stroke:none;stroke-width:0.26458332px;stroke-linecap:butt;stroke-linejoin:miter;stroke-opacity:1"
       id="text893">
      <path
         d="m 44.460726,136.3666 h 0.09878 q 0.148167,0.0593 0.187678,0.13829 0.07902,0.15804 0.0889,0.23706 0,0.01 0.0099,0.0296 v 0.15804 q -0.0099,0.0296 -0.0099,0.0691 l -0.02963,0.11854 v 0.0296 q -0.0099,0.01 -0.0099,0.0198 v 0.0198 q -0.0099,0.01 -0.0099,0.0198 l -1.0668,1.53105 0.918633,0.57291 v 1.89654 q -0.424744,0.1778 -0.612422,0.29633 -0.335844,0.19756 -0.553155,0.37536 -0.0099,0 -0.02963,0.0197 -0.01975,0.01 -0.03951,0.0198 -0.0099,0 -0.01976,0.01 -0.0099,0.01 -0.02963,0.0198 -0.0099,0.01 -0.01976,0.01 -0.108656,-0.0593 -0.335845,-0.15805 -0.158044,-0.0593 -0.3556,-0.10865 -0.01975,0 -0.07902,-0.0198 -0.01976,0 -0.04939,-0.01 -0.02963,0 -0.03951,0 -0.05927,0 -0.0889,-0.01 h -0.1778 q -0.02963,0.01 -0.0889,0.01 -0.128411,0.0197 -0.454378,0.11853 -0.07902,0.0296 -0.246944,0.13829 l -0.138289,-0.0988 1.175456,-1.71873 -0.898878,-0.55316 v -1.6891 q 0.474133,-0.15804 1.027289,-0.7112 l 0.05927,-0.0593 q 0.0099,-0.01 0.01976,-0.0198 0.0099,-0.0198 0.0099,-0.0198 0,0 0.02963,-0.0296 l 1.017411,0.36548 q 0.03951,0.0395 0.05927,0.0395 h 0.02963 q 0.0099,0.01 0.02963,0.01 0.0889,0.0296 0.09878,0.0395 0.01976,0 0.06914,0 0.0889,0 0.118533,-0.01 0.0889,-0.0296 0.237067,-0.079 0.05927,-0.0494 0.108655,-0.0691 0.04939,-0.0296 0.0889,-0.18767 v -0.18768 q -0.0099,-0.0198 -0.05927,-0.0395 0,-0.0198 -0.05927,-0.0692 -0.0099,-0.0494 -0.04939,-0.0593 -0.02963,-0.0198 -0.02963,-0.0296 l -0.02963,-0.0296 v -0.01 q -0.0099,0 -0.0099,-0.01 v -0.0197 q -0.0099,0 -0.01976,-0.01 -0.0099,-0.0198 -0.0099,-0.0296 v -0.0395 q 0,-0.01 0,-0.0296 0.0099,-0.0198 0.05927,-0.0889 0.02963,-0.0395 0.0889,-0.079 l 0.0099,-0.01 h 0.0099 z m -1.303866,3.16089 -0.958145,1.39276 q 0.01976,0.0198 0.05927,0.0198 0.0099,0 0.02963,-0.01 h 0.02963 q 0.138289,-0.0198 0.1778,-0.0198 0.04939,0 0.0889,-0.01 h 0.148166 q 0.0099,0.01 0.06914,0.01 h 0.07902 q 0.02963,0.01 0.0889,0.0198 0.05927,0 0.207433,0.0296 0.06914,0.0198 0.207434,0.0692 0.207433,0.079 0.404989,0.19755 v -1.28411 z m -0.721078,-0.48402 0.553156,0.32597 0.879122,-1.26435 q -0.03951,0.0395 -0.0889,0.0395 h -0.04939 q -0.02963,0.01 -0.04939,0.01 h -0.05927 q -0.0099,0.01 -0.04939,0.01 h -0.0889 q 0.02963,0 -0.523522,-0.0691 -0.1778,-0.0494 -0.523522,-0.1778 z"
         style=""
         id="path905" />
      <path
         d="m 46.392758,137.05804 0.721078,0.65193 -0.286456,0.37536 v 2.77566 q 0,0.15804 0.03951,0.25682 0.04939,0.0889 0.1778,0.14816 l 0.227189,-0.18767 0.148167,0.14816 -0.879122,0.75071 q -0.237067,0 -0.395111,-0.15804 -0.227189,-0.22719 -0.246945,-0.49389 -0.0099,-0.0395 -0.0099,-0.11853 v -3.14114 l -0.227188,-0.39511 z m 0.325967,-1.59032 h 0.592666 l -0.790222,1.0668 z"
         style=""
         id="path907" />
      <path
         d="m 48.647669,136.99877 q 0.553156,0.43463 0.642056,1.12607 0,0 0.0099,0.01 v 0.0494 l 1.224844,-1.16558 q 0.06914,0.0198 0.187678,0.079 0.296333,0.27658 0.395111,0.48401 0.158045,0.23707 0.237067,0.58279 l 1.1557,-1.14582 0.681567,0.7112 0.424744,-0.42474 0.138289,0.14816 q -0.286456,0.37536 -0.385233,0.7112 v 2.56822 q 0,0.0395 0.01976,0.0988 0,-0.0197 0.02963,0.0692 0,0.0296 0.02963,0.0889 0.03951,0.0494 0.04939,0.0691 l 0.02963,0.0296 q 0.04939,0.0494 0.06914,0.0593 0.02963,0.01 0.03951,0.01 l 0.187677,-0.13829 0.118534,0.14817 -0.819856,0.79022 q -0.404989,-0.0692 -0.543278,-0.3556 -0.167922,-0.3556 -0.167922,-0.66181 v -2.54847 q -0.118533,-0.36548 -0.4445,-0.51364 l -0.632178,0.61242 v 2.42993 l 0.325967,0.36548 -0.01976,0.079 -0.760588,0.57291 -0.118534,-0.0197 -0.721078,-0.61242 q 0.217312,-0.079 0.325967,-0.40499 v -2.42994 q -0.0099,-0.01 -0.0099,-0.0395 v -0.0494 q -0.0099,-0.01 -0.0099,-0.0395 -0.0099,-0.079 -0.0889,-0.23706 -0.01976,-0.0395 -0.05927,-0.0988 -0.0099,-0.0198 -0.02963,-0.0494 -0.01976,-0.0296 -0.04939,-0.0395 -0.02963,-0.01 -0.0889,-0.0296 -0.0099,0 -0.03951,-0.01 h -0.04939 l -0.671689,0.65193 v 2.33116 q 0.03951,0.0593 0.118533,0.19755 0.07902,0.0988 0.138289,0.15805 0.01976,0.01 0.03951,0.0494 0.01976,0.0296 0.01976,0.0395 0.0099,0 0.02963,0.0198 l -0.819856,0.67169 -0.770466,-0.69144 0.306211,-0.32597 -0.01976,-2.91395 -0.187678,-0.22718 -0.2667,0.13828 -0.09878,-0.13828 z"
         style=""
         id="path909" />
      <path
         d="m 57.714698,136.3666 h 0.09878 q 0.148167,0.0593 0.187678,0.13829 0.07902,0.15804 0.0889,0.23706 0,0.01 0.0099,0.0296 v 0.15804 q -0.0099,0.0296 -0.0099,0.0691 l -0.02963,0.11854 v 0.0296 q -0.0099,0.01 -0.0099,0.0198 v 0.0198 q -0.0099,0.01 -0.0099,0.0198 l -1.0668,1.53105 0.918634,0.57291 v 1.89654 q -0.424745,0.1778 -0.612423,0.29633 -0.335844,0.19756 -0.553155,0.37536 -0.0099,0 -0.02963,0.0197 -0.01975,0.01 -0.03951,0.0198 -0.0099,0 -0.01976,0.01 -0.0099,0.01 -0.02963,0.0198 -0.0099,0.01 -0.01976,0.01 -0.108656,-0.0593 -0.335845,-0.15805 -0.158044,-0.0593 -0.3556,-0.10865 -0.01975,0 -0.07902,-0.0198 -0.01976,0 -0.04939,-0.01 -0.02963,0 -0.03951,0 -0.05927,0 -0.0889,-0.01 h -0.1778 q -0.02963,0.01 -0.0889,0.01 -0.128411,0.0197 -0.454378,0.11853 -0.07902,0.0296 -0.246944,0.13829 l -0.138289,-0.0988 1.175456,-1.71873 -0.898878,-0.55316 v -1.6891 q 0.474133,-0.15804 1.027289,-0.7112 l 0.05927,-0.0593 q 0.0099,-0.01 0.01976,-0.0198 0.0099,-0.0198 0.0099,-0.0198 0,0 0.02963,-0.0296 l 1.017411,0.36548 q 0.03951,0.0395 0.05927,0.0395 h 0.02963 q 0.0099,0.01 0.02963,0.01 0.0889,0.0296 0.09878,0.0395 0.01976,0 0.06914,0 0.0889,0 0.118533,-0.01 0.0889,-0.0296 0.237067,-0.079 0.05927,-0.0494 0.108655,-0.0691 0.04939,-0.0296 0.0889,-0.18767 v -0.18768 q -0.0099,-0.0198 -0.05927,-0.0395 0,-0.0198 -0.05927,-0.0692 -0.0099,-0.0494 -0.04939,-0.0593 -0.02963,-0.0198 -0.02963,-0.0296 l -0.02963,-0.0296 v -0.01 q -0.0099,0 -0.0099,-0.01 v -0.0197 q -0.0099,0 -0.01976,-0.01 -0.0099,-0.0198 -0.0099,-0.0296 v -0.0395 q 0,-0.01 0,-0.0296 0.0099,-0.0198 0.05927,-0.0889 0.02963,-0.0395 0.0889,-0.079 l 0.0099,-0.01 h 0.0099 z m -1.303867,3.16089 -0.958145,1.39276 q 0.01976,0.0198 0.05927,0.0198 0.0099,0 0.02963,-0.01 h 0.02963 q 0.138289,-0.0198 0.1778,-0.0198 0.04939,0 0.0889,-0.01 h 0.148166 q 0.0099,0.01 0.06914,0.01 h 0.07902 q 0.02963,0.01 0.0889,0.0198 0.05927,0 0.207433,0.0296 0.06914,0.0198 0.207434,0.0692 0.207433,0.079 0.404989,0.19755 v -1.28411 z m -0.721078,-0.48402 0.553156,0.32597 0.879122,-1.26435 q -0.03951,0.0395 -0.0889,0.0395 h -0.04939 q -0.02963,0.01 -0.04939,0.01 h -0.05927 q -0.0099,0.01 -0.04939,0.01 h -0.0889 q 0.02963,0 -0.523523,-0.0691 -0.1778,-0.0494 -0.523522,-0.1778 z"
         style=""
         id="path911" />
      <path
         d="m 60.387563,137.01853 1.323623,0.51364 v 0.01 l 0.01976,-0.0197 q 0.01976,-0.0296 0.09878,-0.0988 0.0889,-0.0692 0.148167,-0.079 0.0099,0 0.02963,-0.01 h 0.02963 q 0.0099,0 0.02963,-0.01 h 0.02963 l 0.03951,-0.0197 q -0.03951,0.0691 -0.108655,0.18767 -0.03951,0.0593 -0.09878,0.18768 -0.04939,0.11853 -0.158045,0.37536 l -0.01975,2.78553 q 0.0099,0.0395 0.0099,0.0494 0.0099,0.01 0.01975,0.0296 v 0.0296 q 0,0.01 0.0099,0.0296 v 0.0197 q 0.01976,0.0296 0.06914,0.0988 0.0099,0.01 0.09878,0.079 0,0.0198 0.01976,0.0198 h 0.0099 q 0,0.01 0.0099,0.01 l 0.1778,-0.12841 0.148167,0.12841 -0.859367,0.75071 h -0.05927 q -0.167923,0 -0.286456,-0.13829 -0.148167,-0.19756 -0.187678,-0.34572 -0.02963,-0.0692 -0.06914,-0.22719 -0.02963,-0.15805 -0.02963,-0.18768 v -0.0691 q -0.0099,0 -0.0099,-0.0198 v -0.0494 q -0.0099,-0.01 -0.0099,-0.0296 v -0.0593 l -1.303867,1.12607 q -0.3556,-0.19756 -0.582789,-0.54328 -0.217311,-0.3556 -0.217311,-0.74083 v -0.0494 q 0,-0.01 0.0099,-0.0296 v -0.0988 q 0,-0.01 0.0099,-0.0296 v -0.0197 q 0,-0.01 0.07902,-0.30621 0.217311,-0.8001 0.839611,-1.30387 l -0.484011,-1.38289 q 0.0099,0.0296 0.02963,0.0296 h 0.05927 q 0,0.01 0.01976,0.01 h 0.138288 q 0.02963,0 0.04939,0 0.01976,-0.01 0.03951,-0.0197 0.0099,0 0.01976,0 0.207433,-0.0296 0.464256,-0.14817 0.227188,-0.10865 0.404988,-0.28645 z m -0.5334,2.00519 q -0.1778,0.23707 -0.246944,0.43462 -0.05927,0.19756 -0.05927,0.43462 v 0.13829 q 0,0.079 0.01976,0.13829 0.07902,0.52352 0.464255,1.05692 l 0.108656,-0.0593 0.691445,-0.61243 v -0.96802 z m -0.385233,-1.35326 0.385233,1.08656 0.958145,0.55315 v -1.14582 l -1.224845,-0.49389 z"
         style=""
         id="path913" />
      <path
         d="m 63.54058,136.99877 h 0.01976 q 0.02963,0.0296 0.05927,0.0296 0.0099,0 0.01976,0 0.0099,0.01 0.01975,0.0197 0.0099,0.01 0.02963,0.01 0.01976,0 0.02963,0.0198 0.01976,0.01 0.02963,0.0198 0.0099,0 0.02963,0.0198 0.01975,0.01 0.02963,0.0197 0.0099,0 0.01976,0.0198 0.01976,0.0197 0.01976,0.0296 0.0099,0 0.05927,0.0494 0.0099,0 0.01975,0.0198 0.01976,0.0198 0.01976,0.0395 0,0.01 0.01976,0.0296 0.01976,0.01 0.02963,0.0296 0.0099,0.01 0.0099,0.0198 0,0.01 0.01976,0.0296 0.217311,0.34573 0.246945,0.68157 l 1.0668,-1.08656 q 0.395111,0.2667 0.651933,0.66182 0.286456,0.43462 0.286456,0.86924 v 2.42993 q -0.7112,0.46426 -1.224845,0.9779 l -0.760589,-0.36547 v 0.0494 q -0.0099,0.01 -0.0099,0.0296 v 0.0296 q -0.0099,0.01 -0.0099,0.0296 v 0.0395 q -0.02963,0.14816 -0.03951,0.16792 0,0.0197 0,0.11853 0,0.75071 0.5334,1.22485 H 64.60738 q -0.0099,-0.01 -0.02963,-0.01 h -0.0889 q -0.0099,-0.01 -0.02963,-0.01 h -0.05927 q -0.2667,-0.13829 -0.385234,-0.25682 -0.05927,-0.0395 -0.335844,-0.31609 -0.04939,0 -0.04939,0.0494 -0.385233,0.34572 -0.701322,0.34572 h -0.03951 q 0.207433,-0.20743 0.325966,-0.47413 0.138289,-0.31609 0.138289,-0.55316 v -0.77047 q -0.02963,0.01 -0.07902,0.01 -0.0099,0 -0.03951,-0.01 h -0.04939 v -0.01 h -0.01976 q -0.05927,0 -0.158045,-0.0198 -0.05927,0 -0.06914,-0.01 h -0.06914 l -0.108655,-0.0198 v -0.32597 q 0,0.0296 0.01976,0.0296 h 0.03951 q 0,0 0.0099,0.01 h 0.06914 q 0.01976,0 0.02963,-0.01 0.01975,-0.01 0.02963,-0.01 0.01976,0 0.03951,-0.01 h 0.02963 q 0.0099,0 0.02963,-0.01 h 0.02963 q 0.148167,-0.11853 0.246945,-0.28645 v -2.3114 q -0.0099,-0.01 -0.01976,-0.0494 -0.0099,-0.0494 -0.0099,-0.079 -0.04939,-0.14816 -0.0889,-0.18767 0,-0.0198 -0.02963,-0.0494 -0.01976,-0.0296 -0.02963,-0.0395 -0.0099,-0.0198 -0.02963,-0.0395 -0.01975,-0.0296 -0.03951,-0.0395 l -0.2667,0.15805 -0.118533,-0.11853 z m 1.303867,0.87913 q -0.03951,0.0593 -0.167922,0.15804 -0.286456,0.28646 -0.424745,0.49389 v 2.16323 l 1.086556,0.34573 v -2.60774 q -0.108656,-0.14816 -0.207434,-0.29633 -0.138289,-0.16792 -0.286455,-0.23707 z"
         style=""
         id="path915" />
      <path
         d="m 68.702646,137.01853 1.323622,0.51364 v 0.01 l 0.01976,-0.0197 q 0.01976,-0.0296 0.09878,-0.0988 0.0889,-0.0692 0.148166,-0.079 0.0099,0 0.02963,-0.01 h 0.02963 q 0.0099,0 0.02963,-0.01 h 0.02963 l 0.03951,-0.0197 q -0.03951,0.0691 -0.108656,0.18767 -0.03951,0.0593 -0.09878,0.18768 -0.04939,0.11853 -0.158044,0.37536 l -0.01976,2.78553 q 0.0099,0.0395 0.0099,0.0494 0.0099,0.01 0.01976,0.0296 v 0.0296 q 0,0.01 0.0099,0.0296 v 0.0197 q 0.01976,0.0296 0.06914,0.0988 0.0099,0.01 0.09878,0.079 0,0.0198 0.01976,0.0198 h 0.0099 q 0,0.01 0.0099,0.01 l 0.1778,-0.12841 0.148167,0.12841 -0.859367,0.75071 h -0.05927 q -0.167922,0 -0.286455,-0.13829 -0.148167,-0.19756 -0.187678,-0.34572 -0.02963,-0.0692 -0.06915,-0.22719 -0.02963,-0.15805 -0.02963,-0.18768 v -0.0691 q -0.0099,0 -0.0099,-0.0198 v -0.0494 q -0.0099,-0.01 -0.0099,-0.0296 v -0.0593 l -1.303866,1.12607 q -0.3556,-0.19756 -0.582789,-0.54328 -0.217311,-0.3556 -0.217311,-0.74083 v -0.0494 q 0,-0.01 0.0099,-0.0296 v -0.0988 q 0,-0.01 0.0099,-0.0296 v -0.0197 q 0,-0.01 0.07902,-0.30621 0.217311,-0.8001 0.839611,-1.30387 l -0.484011,-1.38289 q 0.0099,0.0296 0.02963,0.0296 h 0.05927 q 0,0.01 0.01975,0.01 h 0.138289 q 0.02963,0 0.04939,0 0.01976,-0.01 0.03951,-0.0197 0.0099,0 0.01976,0 0.207433,-0.0296 0.464255,-0.14817 0.227189,-0.10865 0.404989,-0.28645 z m -0.5334,2.00519 q -0.1778,0.23707 -0.246944,0.43462 -0.05927,0.19756 -0.05927,0.43462 v 0.13829 q 0,0.079 0.01976,0.13829 0.07902,0.52352 0.464256,1.05692 l 0.108656,-0.0593 0.691444,-0.61243 v -0.96802 z m -0.385233,-1.35326 0.385233,1.08656 0.958144,0.55315 v -1.14582 l -1.224844,-0.49389 z"
         style=""
         id="path917" />
    </g>
    <g
       aria-label="S"
       style="font-style:normal;font-variant:normal;font-weight:normal;font-stretch:normal;font-size:29.63333321px;line-height:5.29166651px;font-family:'Gotische Initialen';-inkscape-font-specification:'Gotische Initialen, Normal';font-variant-ligatures:normal;font-variant-caps:normal;font-variant-numeric:normal;font-feature-settings:normal;text-align:start;letter-spacing:0px;word-spacing:0px;writing-mode:lr-tb;text-anchor:start;fill:#000000;fill-opacity:1;stroke:none;stroke-width:0.26458332px;stroke-linecap:butt;stroke-linejoin:miter;stroke-opacity:1"
       id="text897">
      <path
         d="m 70.627888,134.26501 v -29.18884 h -29.337 v 29.18884 z m -0.325966,-0.32597 H 41.616855 v -28.5369 h 28.685067 z m -0.503767,-0.50377 V 105.90591 H 42.120622 v 27.52936 z m -0.385233,-0.38523 H 42.505855 v -26.7589 h 26.907067 z m -0.563034,-0.56303 v -25.63284 h -25.781 v 25.63284 z m -0.651933,-23.4696 q -0.118533,0.0889 -0.3556,0.3556 -0.207433,0.11853 -0.503767,0.0889 0,-0.1778 0.2667,-0.4445 l 0.1778,-0.29634 q -0.02963,-0.11853 -0.118533,-0.11853 -0.0889,0.0593 -0.385233,0.29633 -0.0889,0.0593 -0.1778,0.11854 -0.0889,0.0593 -0.1778,0.11853 -0.05927,0.0296 -0.0889,0.0296 -0.02963,-0.14816 0.05927,-0.68156 0.118534,-0.1778 0.592667,-0.32597 0.503767,-0.1778 0.5334,-0.20743 h 0.118533 q 0.0889,0.11853 0.0889,0.4445 v 0.2667 q 0,0.29633 -0.02963,0.3556 z m 0.325967,2.07433 -0.0889,0.0593 -0.148167,-0.41487 q -0.0889,-0.11853 -0.385233,-0.20743 -0.237067,-0.14817 -0.0889,-0.4445 0.1778,-0.1778 0.503766,-0.0593 l 0.207434,0.20743 q 0.0889,0.20744 0.0889,0.4445 0,0.1778 -0.0889,0.41487 z m -2.163234,-2.63737 q 0.05927,0.29634 -0.05927,0.47414 l -0.2667,0.11853 -0.148167,-0.0889 q -0.148167,-0.14817 -0.148167,-0.4445 -0.1778,-0.23707 -0.385233,-0.2667 l -0.1778,-0.0593 q 0.118533,-0.1778 0.6223,-0.1778 0.414867,0.0889 0.563033,0.4445 z m -0.681566,1.09644 -0.237067,0.0296 -0.474133,-0.0889 0.563033,-0.0296 z m -2.459567,-1.36314 q 0.0889,0.20744 -0.0889,0.41487 -0.02963,0.0296 -0.207433,0.0296 -0.148167,0 -0.1778,0.0296 -0.237067,-0.1778 -0.237067,-0.32597 0.118533,-0.11853 0.118533,-0.23707 0,-0.0296 0.05927,-0.0296 0.05927,0 0.05927,-0.0296 0.118533,-0.0593 0.207433,-0.0889 0.118533,0.0296 0.2667,0.23706 z m 4.563533,4.6228 q -0.05927,0.1778 -0.1778,0.2667 -0.0889,0.14817 -0.05927,0.2667 v 0.41487 l -0.118534,0.0593 q -0.148166,0 -0.385233,-0.14817 -0.414867,-0.2667 -0.592667,-0.2667 l -0.148166,0.11853 q -0.0889,0.1778 0.0889,0.3556 0.296333,0.11854 0.414866,0.41487 0.02963,0.29633 -0.0889,0.59267 h -0.563033 l -0.1778,0.20743 q -0.207433,0.1778 -0.474133,0.1778 l -0.296334,-0.1778 q -0.02963,-0.0296 -0.6223,0.20743 l -0.207433,-0.11853 q -0.0889,-0.14817 -0.05927,-0.32597 0,-0.0593 0,-0.1778 0.02963,-0.14816 0.05927,-0.20743 0,-0.11853 0.148167,-0.2667 v -0.2667 l -0.0889,-0.0593 -0.148167,0.0296 q -0.05927,0.0296 -0.3556,0.4445 -0.1778,0.2667 -0.474133,0.32596 l -0.207434,-0.0889 q -0.02963,-0.20743 -0.148166,-0.38523 -0.02963,-0.0889 -0.3556,-0.50377 l -0.02963,-0.0889 0.0889,-0.1778 0.118534,-0.20743 q -0.05927,-0.0889 -0.1778,-0.1778 -0.118534,-0.0593 -0.207434,-0.14817 0,-0.1778 0.1778,-0.3556 h 0.414867 q 0.385233,0 0.414867,-0.0296 l 0.118533,-0.11853 v -0.14817 l -0.474133,-0.2667 q -0.1778,-0.11853 -0.325967,-0.29633 l -0.02963,-0.11854 0.0889,-0.0889 q 0.02963,-0.0296 0.3556,-0.0296 0.02963,-0.0889 0.05927,-0.20743 0.05927,-0.11854 0.0889,-0.1778 0.02963,-0.0593 0.02963,-0.0889 0.02963,-0.14817 0.237066,-0.20744 0.05927,-0.0593 0.325967,-0.14816 0.05927,-0.14817 0.296333,-0.20744 l 0.237067,0.0889 q 0.05927,0.0593 0.148167,0.3556 0.0889,0.29634 0.1778,0.38524 h 0.118533 l 0.05927,-0.0889 q 0,-0.23707 -0.0889,-0.8001 0,-0.0296 0.05927,-0.32597 0.207434,-0.0889 0.385234,0 l 0.1778,0.14817 h 0.2667 q 0.237066,0 0.2667,-0.0296 l 0.237066,0.11854 q 0.0889,0.0593 0.0889,0.41486 l 0.118534,0.11854 h 0.3556 l 0.02963,0.0889 q 0,0.20743 -0.237067,0.38523 -0.4445,0.32597 -0.503766,0.59267 l 0.0889,0.14816 h 0.207433 q 0.325967,-0.29633 0.474133,-0.3556 0.1778,-0.0889 0.474134,0 l 0.148166,0.0593 q 0,0.50377 0.1778,1.09643 z m 0.474134,1.00754 q 0,0.0296 -0.02963,0.0889 -0.02963,0.0296 -0.05927,0.0889 -0.02963,0.0296 -0.02963,0.0593 l -0.207433,0.3556 q -0.237067,0.23707 -0.3556,0.56304 -0.2667,0.2667 -0.740833,0.6223 -0.4445,0.20743 -0.859367,0.29633 -0.207433,0.11853 -0.7112,0.11853 l -0.118533,0.0296 q -0.8001,-0.0889 -1.274234,-0.2667 -0.5334,-0.23707 -0.9779,-0.6223 -0.3556,-0.41487 -0.740833,-1.09644 -0.2667,-0.6223 -0.2667,-1.39276 0,-0.14817 0.02963,-0.2667 0,-0.1778 0.02963,-0.29634 0.148166,-0.14816 0.207433,-0.14816 l 0.0889,0.0593 q -0.02963,0.14817 -0.02963,0.41487 -0.02963,0.11853 -0.02963,0.32597 0,0.2667 0.05927,0.74083 0.02963,0.23707 0.207433,0.65193 l 0.1778,0.29634 q 0.385234,0.65193 1.037167,1.03716 0.651933,0.38524 1.452033,0.38524 0.325967,0.0296 0.948267,-0.11854 0.3556,-0.11853 0.859367,-0.38523 0.592666,-0.41487 0.948266,-1.12607 0.3556,-0.7112 0.3556,-1.48166 0,-0.38524 -0.02963,-0.41487 -0.05927,-0.23707 0,-0.2667 -0.148167,-0.4445 -0.296333,-0.74083 -0.237067,-0.41487 -0.4445,-0.6223 -0.681567,-0.77047 -1.6002,-1.03717 l -0.05927,-0.0889 q 0.207433,0 0.681567,0.20743 0.385233,0.23707 0.563033,0.29634 l 0.2667,0.2667 q 0.05927,0.0593 0.118533,0.14816 0.0889,0.0889 0.118534,0.11854 l 0.1778,0.23706 0.237066,0.29634 q 0.414867,0.68156 0.414867,1.65946 0,0.74084 -0.118533,1.00754 z m -0.0889,2.7559 q -0.02963,0.1778 -0.2667,0.41486 -0.148167,0 -0.414867,0.0889 -0.325967,0 -0.4445,-0.29633 -0.207433,-0.20743 0.02963,-0.56303 0.1778,-0.20744 0.503767,-0.2667 0.02963,0.0296 0.05927,0.0296 0.02963,0 0.02963,0.0296 0.02963,0 0.05927,0 0.05927,0.0296 0.237066,0.0889 0.1778,0.23707 0.207434,0.47414 z m -6.4008,-7.14164 -0.0889,0.0593 q -0.118534,0.0889 -0.2667,0.0296 0,-1.03716 -0.7112,-1.45203 l -0.414867,-0.14817 q -0.5334,0 -0.740833,0.20744 -0.1778,0.1778 -0.118534,0.59266 0.0889,0.2667 0.4445,0.32597 l 0.148167,-0.0889 q 0.0889,-0.0889 0.0889,-0.47413 l 0.0889,-0.0593 q 0.148167,0 0.2667,0.11853 0.207433,0.23707 0.0889,0.6223 -0.207433,0.38524 -0.563033,0.38524 l -0.207434,0.0296 -0.3556,-0.11853 q -0.05927,-0.0296 -0.1778,-0.0593 -0.118533,-0.0593 -0.148166,-0.0593 -0.0889,-0.0889 -0.148167,-0.56303 l -0.118533,-0.0296 q -0.474134,0.29633 -0.889,0.29633 -0.0889,-0.0889 -0.0889,-0.32597 -0.325967,-0.0296 -0.859367,-0.20743 -0.3556,-0.11853 -0.503767,-0.47413 l -0.118533,-0.3556 0.05927,-0.0593 q 0.118533,0.29633 0.474133,0.50377 l 1.659467,-0.29634 1.659466,-0.29633 q 0.829734,0 1.363134,0.68157 0.207433,0.38523 0.207433,0.889 0,0.29633 -0.02963,0.32596 z m 6.7564,8.38624 0.0889,0.23706 -0.0889,0.29634 -0.1778,0.11853 h -0.1778 q -0.325967,-0.0296 -0.3556,-0.2667 0,-0.3556 0.02963,-0.38523 l 0.325967,-0.14817 q 0.2667,0.0593 0.3556,0.14817 z m -6.3119,-2.34104 q 0.05927,0.11854 -0.0889,0.5334 -0.118534,0.20744 -0.414867,0.20744 l -0.118533,-0.0593 q 0,-0.20743 0.118533,-0.41487 l -0.237067,-0.1778 -0.4445,0.0296 q 0.1778,-0.1778 0.414867,-0.29634 0.118533,-0.0889 0.385233,-0.0889 0.207434,0.0296 0.385234,0.2667 z m -0.207434,-1.03716 q -0.503766,0.29633 -0.859366,0.68156 l -0.770467,0.65194 q -0.918633,0.82973 -1.481667,1.48166 -0.0889,0.0296 -0.296333,0.29634 -0.207433,0.2667 -0.414867,0.29633 -0.148166,-0.0593 -0.1778,-0.11853 -0.118533,-0.11854 -0.148166,-0.1778 0.207433,-0.50377 0.207433,-1.4224 0,-0.4445 -0.02963,-0.8001 -0.02963,-0.3556 -0.02963,-0.8001 0,-0.0296 0,-0.0889 0.02963,-0.0593 0.05927,-0.1778 0.02963,-0.11854 0.05927,-0.20744 0.02963,-0.32596 0.207433,-0.50376 0.2667,-0.3556 0.7112,-0.56304 0.0889,-0.0593 1.5113,-0.4445 0.05927,0 0.118533,-0.0296 0.148167,0 0.1778,0.0296 0.148167,0.14817 0.148167,0.20744 v 0.14816 l -0.296333,0.23707 q -0.385234,0 -0.681567,0.0889 -0.325967,0.0296 -0.5334,0.23707 -0.05927,0.0593 -0.05927,0.11853 -0.0889,0.0296 -0.02963,0.1778 l 0.118533,0.0889 0.889,-0.2667 0.207434,0.0889 0.05927,0.20743 -0.296333,0.29634 -0.207433,-0.0593 q -0.05927,0.0593 -0.385234,-0.0296 l -0.118533,0.0593 q 0,0.0296 -0.1778,0.0889 l -0.0889,0.20744 0.0889,0.0889 0.563033,0.0593 q 0.02963,0.0296 -0.02963,0.2667 -0.05927,0.0593 -0.148167,0.1778 -0.0889,0.0889 -0.118533,0.11854 -0.148167,0.14816 -0.296333,0.20743 -0.1778,0.1778 -0.503767,0.11853 l -0.148167,-0.0889 -0.118533,-0.20743 q 0,-0.14817 0.1778,-0.41487 0.207433,-0.1778 0.237067,-0.32596 l -0.0889,-0.14817 -0.207434,-0.0296 q -0.207433,0.0593 -0.325966,0.50376 l -0.0889,1.1557 q -0.02963,0.23707 -0.02963,0.7112 0,0.11854 -0.02963,0.3556 0,0.20744 -0.02963,0.32597 l 0.148166,-0.0593 1.1557,-1.18533 1.1557,-1.18533 q 0.0889,-0.0593 0.4445,-0.4445 0.385234,-0.47414 0.563034,-0.50377 l 0.0889,0.0296 q 0.1778,0.1778 0.148166,0.47414 z m -1.452033,3.1115 q -0.05927,0.0593 -0.118533,0.0889 -0.02963,0.0296 -0.148167,0.0889 -0.0889,-0.0889 -0.0889,-0.14817 l -0.118533,-0.20743 q -0.237067,-0.0593 -0.4445,0.0889 -0.148167,0.0889 -0.4445,0.20743 l -0.2667,0.1778 q 0.207433,-0.3556 0.6223,-0.59267 0.118533,-0.0296 0.237066,-0.11853 0.02963,0 0.0889,-0.0296 0.0889,-0.0593 0.118534,-0.0593 0.237066,-0.0593 0.414866,0.0889 0.207434,0.0889 0.148167,0.41487 z m -3.052233,-2.19287 q 0.118533,0.20743 0.118533,0.68157 0,0.6223 -0.296333,1.18533 -0.207434,-0.1778 -0.2667,-0.23707 0,-0.0296 -0.148167,-0.23706 0.118533,-0.32597 0.118533,-0.8001 0,-0.3556 -0.1778,-0.56304 -0.2667,-0.38523 -0.503766,-0.47413 -0.385234,-0.1778 -0.740834,-0.23707 -0.5334,0.0593 -0.681566,0.38524 -0.1778,0.2667 0.02963,0.47413 0.0889,0.0296 0.207433,0 0.1778,-0.0593 0.237067,-0.0593 0.02963,0.20744 -0.1778,0.50377 -0.325967,0.23707 -0.6223,0.14817 -0.1778,-0.0593 -0.385233,-0.38524 -0.02963,-0.38523 0.118533,-0.68156 0.1778,-0.29634 0.651933,-0.6223 l -0.207433,-0.20744 -0.325967,-0.23706 q -0.0889,-0.11854 -0.2667,-0.29634 -0.118533,-0.11853 -0.118533,-0.32596 0,-0.38524 0.207433,-0.50377 0.3556,-0.23707 0.770467,-0.11853 0.385233,0.0889 0.414867,0.5334 l -0.05927,-0.0296 -0.05927,-0.0296 -0.237066,-0.0889 q -0.118534,0.0296 -0.207434,0.32597 l 0.0889,0.14816 q 1.659467,0.77047 1.807634,0.85937 0.503766,0.3556 0.7112,0.889 z m -5.541434,-7.43797 q -0.592666,0.68157 -1.659466,0.94827 -0.592667,0 -1.126067,0.14817 -0.474133,0.1778 -0.740833,0.65193 l -0.05927,0.3556 q -0.05927,0.23707 0,0.38523 -0.05927,0.0889 -0.237067,0.23707 -0.148166,0.11853 -0.207433,0.23707 h -0.118533 q -0.2667,-0.2667 -0.296334,-0.41487 -0.0889,-0.20743 -0.0889,-0.6223 0,-0.14817 0,-0.3556 0.02963,-0.23707 0.02963,-0.29633 0.118533,-0.3556 0.237066,-0.5334 l 0.05927,-0.0593 q 0.05927,-0.0889 0.0889,-0.11853 0.02963,-0.0296 0.237067,-0.32597 0.148166,-0.14817 0.2667,-0.0889 l 0.05927,0.11853 -0.05927,0.23707 q -0.05927,0.11853 0,0.2667 l 0.0889,0.0296 q 0.0889,-0.1778 0.325966,-0.5334 0.237067,-0.32596 0.474134,-0.3556 l 0.918633,0.0296 -0.05927,0.23706 -0.118533,0.1778 0.05927,0.0889 q 0.2667,-0.32596 0.681566,-0.41486 0.05927,0 0.414867,0 0.3556,-0.0296 0.6223,-0.0296 z m 1.748367,5.4229 -0.05927,0.14817 q -0.148166,0.0889 -0.503766,0.20743 l -0.474134,0.1778 0.325967,-0.889 0.0889,-0.0593 0.3556,0.20743 q 0.1778,0.11853 0.2667,0.20743 z m 0.503767,1.12607 q -0.207434,0.41487 -0.503767,0.47413 -0.325967,-0.0593 -0.5334,-0.1778 -0.237067,-0.0889 -0.563033,-0.29633 l -0.02963,-0.11853 q 0.1778,-0.23707 0.474134,-0.2667 0.325966,-0.0296 0.7112,-0.1778 l 0.148166,0.0889 z m 14.1351,14.78703 q 0.05927,0.0593 0.05927,0.23707 0,0.23707 -0.148166,0.38523 -0.148167,0.14817 -0.563034,0.14817 -0.02963,-0.0296 -0.1778,-0.0296 -0.207433,0 -0.237066,-0.0296 -0.1778,-0.1778 -0.118534,-0.41486 0.414867,-0.1778 0.563034,-0.2667 0.1778,-0.0593 0.5334,-0.11854 z m -4.0894,-3.9116 -0.4445,1.30387 q -0.118534,0.23707 -0.325967,0.29633 -0.237067,-0.23706 -0.2667,-0.32596 -0.118533,-0.11854 -0.237067,-0.3556 l -0.651933,-0.5334 q -0.325967,-0.29634 -0.474133,-0.3556 h -0.118534 l -0.148166,0.14816 v 0.11854 l 0.474133,0.38523 0.474133,0.41487 0.2667,0.3556 q 0.1778,0.23706 0.2667,0.32596 l -0.02963,0.11854 -0.474133,0.38523 -0.4445,0.3556 q -0.0889,-0.11853 -0.2667,-0.889 -0.1778,-0.77047 -0.563034,-0.94827 l -0.05927,0.0889 q 0.148166,0.4445 0.237066,0.74084 0.148167,0.59266 0.118534,0.889 -0.0889,-0.0593 -0.7112,-0.2667 -0.592667,-0.23707 -0.681567,-0.65194 0.237067,-0.23706 0.325967,-0.4445 0.0889,-0.1778 0.02963,-0.50376 l -0.0889,-0.29634 q 0.681567,-0.23706 0.918633,-0.77046 l 0.02963,-0.20744 q 0.503766,-0.32596 0.503766,-0.889 -0.0889,-0.3556 -0.5334,-0.59266 -0.148166,-0.29634 -0.237066,-0.5334 -0.148167,-0.32597 -0.414867,-0.47414 0,-0.0593 0.2667,-0.74083 0.1778,-0.47413 0.0889,-0.77047 l 0.0889,-0.0889 q 0.1778,-0.0593 0.414867,0.1778 0.237066,0.56304 0.4445,0.59267 l 0.207433,0.0296 0.05927,0.0593 0.02963,0.14817 -0.6223,0.8001 0.05927,0.0889 q 0.7112,-0.2667 0.8001,-0.29634 0.237066,-0.1778 0.325966,-0.32596 l 0.1778,-0.1778 0.0889,0.0296 q 0.148167,0.0889 0.237067,0.47413 0.0889,0.3556 0.1778,0.4445 l 0.148167,0.0593 -0.02963,0.1778 -0.740833,0.23707 -0.7112,0.23706 v 0.14817 q 0.02963,0.0296 0.325967,0.0296 0.2667,0 0.6223,-0.0593 0.05927,0 0.651933,-0.20744 l 0.1778,-0.11853 0.05927,-0.0593 q 0,0.0593 0.148166,0.0593 l 0.05927,0.23707 v 0.0593 q 0,0.11854 -0.05927,0.23707 0,0.0593 -0.02963,0.20743 -0.02963,0.11854 -0.02963,0.20744 -0.05927,0.11853 -0.05927,0.41486 -0.02963,0.11854 0.02963,0.29634 l -0.948266,-0.1778 q -0.563034,-0.0889 -0.948267,-0.20744 l -0.148167,0.1778 0.05927,0.1778 q 0.02963,0 0.148167,0.0296 0.118533,0.0296 0.207433,0.0593 0.207433,0 0.563033,0.14817 0.7112,0.1778 1.126067,0.1778 z m -10.519834,-9.39376 -0.1778,0.20743 -0.118533,0.0593 q -0.02963,-0.0593 -0.325967,-0.5334 -0.118533,-0.20744 -0.118533,-0.50377 h 0.148167 q 0.4445,0.1778 0.5334,0.3556 0.02963,0.0296 0.02963,0.20743 0,0.1778 0.02963,0.20744 z m -1.037166,-0.11854 q 0.1778,0.4445 0.385233,0.74084 l -0.148167,0.0296 q -0.296333,-0.20743 -0.385233,-0.5334 l -0.2667,-0.68157 q -0.474133,-0.1778 -0.6223,-0.77046 0.503767,-0.77047 0.7112,-1.65947 0.05927,-0.1778 0.2667,-0.1778 l -0.02963,0.0593 q 0,0.0593 0,0.11853 -0.02963,0.0593 -0.05927,0.1778 -0.02963,0.0889 -0.05927,0.14817 0,0.11853 -0.05927,0.3556 -0.02963,0.11853 0.02963,0.29633 -0.148167,0.11853 -0.237067,0.2667 -0.0889,0.14817 -0.02963,0.3556 l 0.385233,0.3556 -0.05927,0.0889 z m 8.8011,8.3566 q -0.207434,0.0296 -0.3556,0.23707 -0.02963,0.0889 -0.118534,0.29633 -0.05927,0.1778 -0.118533,0.32597 -0.02963,0.0296 -0.118533,0.0889 l -0.05927,0.0593 q -0.0889,0.0296 -0.148167,0.0593 -0.02963,0.0296 -0.05927,0.0296 -0.02963,0 -0.05927,0.0296 0,0 -0.02963,0 -0.02963,0.0296 -0.118534,0.0593 -0.05927,0 -0.0889,0 l -0.1778,-0.1778 q 0.563034,-0.47414 0.563034,-1.5113 0,-0.32597 -0.02963,-0.3556 0,-0.2667 -0.2667,-0.59267 0,-0.0296 0.1778,-0.1778 0.1778,0 0.385234,0.2667 0.1778,0.5334 0.237066,0.65193 0.207434,0.2667 0.385234,0.3556 0.118533,0.23707 0,0.3556 z m 7.082366,-1.778 q 0,1.83727 -0.8001,3.4671 -0.651933,1.36314 -1.985433,2.63737 -0.02963,0.0296 -0.0889,0.0593 l -0.118533,0.0889 q -0.740834,0.56303 -1.718734,1.27423 -0.889,0.59267 -1.718733,1.00753 -0.02963,0.0296 -0.414867,0.1778 -0.3556,0.11854 -0.5334,0.2667 -0.1778,0.0593 -0.474133,0.11854 -0.2667,0.0889 -0.325967,0.11853 -0.414866,0.11853 -0.6223,0.14817 -0.3556,0.0593 -0.5334,0.11853 -0.1778,0 -0.592666,0.0593 l -0.237067,0.0593 h -0.414867 l -0.148166,-0.0593 q -0.474134,-0.68157 -0.9779,-1.0668 -0.5334,-0.5334 -1.185334,-0.91864 l -0.8001,-0.50376 q -0.05927,-0.0296 -0.2667,-0.11854 -0.207433,-0.0593 -0.296333,-0.11853 -0.0889,-0.0296 -0.1778,-0.0889 -0.0889,-0.0296 -0.207433,-0.0889 -0.0889,-0.0296 -0.1778,-0.0593 -0.2667,-0.0593 -0.740834,-0.1778 -0.5334,-0.0593 -0.829733,-0.0889 h -0.651933 q -0.740834,0 -1.0668,0.0296 -0.651934,0.0593 -0.948267,0.14816 l -0.207433,0.11854 q -0.0889,0.0296 -0.414867,0.14816 -0.05927,0 -0.207433,0.0593 -0.118534,0.0593 -0.207434,0.0593 l -0.740833,0.41486 -0.7112,0.41487 -1.926167,1.6002 q -0.148166,0.0889 -0.296333,0.0889 -0.207433,0 -0.2667,-0.0889 -0.02963,-0.0889 -0.118533,-0.1778 0.118533,-0.5334 0.592666,-1.09643 l 1.481667,-1.48167 0.325967,-0.23707 q 0.770466,-0.6223 1.748366,-1.2446 0.829734,-0.56303 1.807634,-0.889 1.037166,-0.29633 1.8669,-0.41486 1.037166,-0.14817 1.778,-0.14817 1.6002,0 3.615266,0.59267 0.889,0.2667 1.4224,0.47413 0.7112,0.29633 1.2446,0.65193 0.503767,0.23707 1.126067,0.7112 0.7112,0.65194 1.037167,0.9779 0.414866,-0.11853 0.8001,-0.50376 0.1778,-0.1778 0.296333,-0.2667 l 0.4445,-0.38524 q 1.0668,-1.57056 1.0668,-3.34856 0,-0.94827 -0.207433,-1.39277 -0.02963,-0.11853 -0.237067,-0.47413 -0.207433,-0.29634 -0.237067,-0.41487 -1.037166,-1.6002 -3.170766,-2.37067 -0.207434,-0.11853 -0.563034,-0.11853 -0.118533,0 -0.474133,0.0593 -0.02963,0 -0.681567,0.14816 -0.4445,0.20744 -0.503766,0.20744 -0.05927,0.0296 -0.1778,0.0889 -0.118534,0.0296 -0.1778,0.0593 -0.05927,0.0296 -0.474134,0.2667 l -0.8001,0.47414 -1.6002,1.1557 -0.474133,0.32596 -0.681567,-1.00753 q -0.474133,-0.59267 -0.563033,-0.68157 -0.325967,-0.41486 -0.681567,-0.5334 -0.0889,-0.0296 -0.237066,-0.0296 -0.05927,-0.0296 -0.118534,-0.0296 -0.3556,0 -0.740833,0.20743 -0.207433,0.0296 -0.651933,0.3556 l -1.452034,1.21497 -1.452033,1.21496 q -0.651933,-0.29633 -0.9779,-0.59266 -0.325967,-0.20744 -0.889,-0.82974 -0.829733,-0.889 -1.3335,-1.9558 -0.503767,-1.09643 -0.503767,-2.2225 0,-0.68156 0.0889,-1.21496 0.0889,-0.50377 0.325967,-1.12607 0.296333,-1.3335 0.889,-2.3114 0.474133,-0.91863 1.392767,-1.83727 l 0.385233,-0.38523 q 0.3556,-0.3556 0.6223,-0.56303 l 0.385233,-0.32597 q 0.02963,-0.0296 0.05927,-0.0593 0.02963,-0.0593 0.05927,-0.0889 l 0.05927,-0.0296 q 2.548467,-2.01507 6.163734,-2.3114 l 0.5334,0.5334 q 0.1778,0.1778 0.474133,0.41487 0.118533,0.0889 0.296333,0.23706 0.207434,0.14817 0.296334,0.20744 0.503766,0.29633 0.592666,0.32596 0.563034,0.3556 1.185334,0.50377 0.563033,0.0889 1.570566,0.0889 0.889,0 2.963334,-1.09643 0.8001,-0.47414 1.096433,-0.32597 0.207433,0.20743 0.148167,0.47413 -0.237067,0.47414 -0.5334,0.77047 -0.207434,0.20743 -0.740834,0.6223 l -0.681566,0.47413 -0.5334,0.32597 q -1.363134,0.82973 -2.341034,1.0668 -1.3335,0.3556 -2.459566,0.3556 -1.5113,0 -3.052234,-0.6223 -0.385233,-0.23707 -0.889,-0.41487 -0.592666,-0.2667 -0.948266,-0.6223 l -0.474134,-0.41486 q -0.3556,-0.29634 -0.503766,-0.4445 h -0.118534 q -0.889,0.65193 -1.392766,1.2446 -0.592667,0.68156 -0.9779,1.45203 l -0.2667,0.91863 q -0.148167,0.59267 -0.148167,1.18534 0,1.09643 0.296333,1.6891 l 0.8001,1.12606 0.6223,0.4445 q 0.0889,0.0889 0.503767,0.32597 0.414867,0.1778 0.651933,0.29633 0.385234,0.20744 0.740834,0.11854 0.385233,-0.0889 0.8001,-0.41487 l 0.296333,-0.20743 q 0.05927,-0.0593 0.1778,-0.14817 0.148167,-0.11853 0.237067,-0.20743 l 2.1336,-1.80764 q 0.118533,0 0.237066,-0.20743 h 0.118534 q 0.05927,0.14817 0.118533,0.14817 0.237067,0.65193 0.889,1.5113 0.7112,0.7112 1.363133,0.9779 0.385234,0 0.592667,-0.0296 0.325967,-0.0593 0.503767,-0.11853 0.651933,-0.41487 0.918633,-0.6223 0.237067,-0.1778 0.770467,-0.65193 l 0.8001,-0.68157 0.385233,-0.38523 q 0.02963,-0.0296 0.385233,-0.0296 0.503767,0 1.037167,0.1778 0.237067,0.0593 1.126067,0.41487 l 0.474133,0.2667 1.1557,0.889 q 0.5334,0.50377 0.859367,1.00753 0.296333,0.47414 0.651933,1.2446 0.118533,0.32597 0.296333,0.9779 0.0889,0.4445 0.0889,1.2446 z m -21.543433,-11.79406 -0.0889,0.0296 q -0.4445,-0.20743 -0.918633,-0.23707 l -0.118534,-0.0889 q -0.05927,-0.3556 -0.118533,-0.47413 v -0.4445 q 0.118533,-0.0889 0.3556,-0.0889 0.296333,0 0.503767,0.11853 l 0.148166,0.11854 q 0,0.23706 0.118534,0.59266 0.0889,0.41487 0.118533,0.47414 z m 21.306367,21.336 -0.118534,0.0593 q -0.4445,0 -0.7112,-0.11853 -0.325966,-0.11853 -0.5334,-0.3556 l -0.0889,-0.29633 q -0.0889,-0.2667 -0.0889,-0.38524 l 0.207434,-0.20743 q 0.1778,-0.0889 0.237066,-0.2667 0.503767,0 0.681567,0.2667 0.414867,0.59267 0.414867,1.30387 z m -21.454534,-22.87694 -0.0889,0.0593 q -0.148166,-0.0593 -0.385233,-0.0889 -0.237067,-0.0593 -0.296333,-0.0889 -0.118534,0 -0.385234,-0.0296 -0.2667,-0.0593 -0.296333,-0.0593 -0.05927,0.0889 -0.118533,0.20743 0.05927,0.20744 0.118533,0.59267 0,0.11853 0.05927,0.77047 -0.118534,0.11853 -0.3556,0.1778 -0.325967,-0.0593 -0.651934,-0.23707 -0.325966,-0.14817 -0.414866,-0.32597 -0.148167,-0.4445 -0.148167,-0.47413 l 0.118533,-0.14817 q 0.148167,-0.0593 0.296334,0 l 0.385233,0.14817 0.0889,-0.1778 q -0.118533,-0.20743 -0.385233,-0.3556 l -0.148167,-0.0593 q -0.207433,-0.20743 -0.207433,-0.65193 v -0.5334 l 0.05927,-0.0889 q 0.02963,0 0.118534,0 0.0889,-0.0296 0.118533,-0.0593 h 0.118533 q 0.503767,0 0.918634,0.32597 l 0.148166,0.29633 0.148167,0.0889 0.1778,-0.0296 q 0,-0.38523 0.0889,-0.6223 l 0.05927,-0.0593 q 0.414866,-0.0593 0.6223,0.1778 0.0889,0.11854 0.148166,0.47414 0.05927,0.47413 0.0889,0.77046 z m 5.8674,7.9121 q -0.0889,0.59267 -0.592666,1.09644 -0.3556,0 -0.474134,-0.29634 h -0.118533 l -0.0889,0.0889 q 0.05927,0.0593 0.118533,0.14817 0.0889,0.0889 0.118534,0.11853 l 0.2667,0.2667 q -0.0889,0.0296 -0.148167,0.0889 l -0.3556,-0.14816 q -0.1778,-0.1778 -0.1778,-0.65194 0,-0.23706 0.237067,-0.47413 0,-0.14817 0.1778,-0.4445 0.207433,-0.23707 0.207433,-0.41487 l -0.0889,-0.11853 q -0.207433,0 -0.325967,0.29633 -0.148166,0.29634 -0.503766,0.50377 -0.05927,-0.0296 -0.118534,-0.0593 -0.05927,-0.0296 -0.118533,-0.0296 -0.02963,0 -0.118533,-0.0296 -0.0889,-0.0296 -0.118534,-0.0593 l -0.0889,0.0593 -0.05927,0.11853 0.148166,0.23707 q -0.118533,0.0296 -0.207433,-0.0593 -0.0889,-0.0889 -0.148167,-0.20743 0,-0.0593 -0.02963,-0.14817 -0.02963,-0.0889 -0.05927,-0.14817 -0.02963,-0.0593 -0.02963,-0.20743 0.1778,-0.14817 0.5334,-0.50377 0.3556,-0.3556 0.563033,-0.50376 0.02963,-0.0889 -0.148166,-0.32597 -0.1778,0.0296 -0.503767,0.2667 -0.385233,0.2667 -0.474133,0.29633 0,-0.0296 -0.0889,-0.20743 -0.0889,-0.11853 -0.1778,-0.3556 l -0.1778,-0.38523 q -0.0889,-0.20744 -0.0889,-0.3556 l -0.148167,-0.0889 -0.05927,0.23706 v 0.0889 q 0,0.29634 0.0889,0.56304 0.02963,0.0889 0.0889,0.23706 0.05927,0.14817 0.05927,0.1778 l -0.2667,-0.20743 q -0.207433,-0.38523 -0.207433,-0.8001 0,-0.38523 0.118533,-0.59267 l 0.118533,-0.23706 q 0.148167,-0.14817 0.296334,-0.14817 0.385233,0 0.651933,0.11853 0.237067,0.0889 0.651933,0.2667 l 0.2667,-0.11853 0.05927,-0.0889 v -0.11853 l -0.0889,-0.11854 q -0.05927,0 -0.503767,-0.11853 -0.207433,-0.0593 -0.237066,-0.0889 -0.3556,-0.11853 -0.563034,-0.41487 -0.1778,-0.2667 -0.05927,-0.5334 0.02963,-0.20743 0.3556,-0.38523 h 0.2667 q 0.2667,0.14817 0.5334,0.50377 0.296333,0.38523 0.5334,0.47413 l 0.1778,-0.0296 0.0889,-0.0889 0.02963,-0.11854 -0.05927,-0.11853 q -0.02963,-0.0296 -0.0889,-0.0889 -0.02963,-0.0593 -0.118533,-0.14817 -0.0889,-0.0889 -0.148167,-0.1778 -0.05927,-0.0593 -0.385233,-0.50376 l 0.1778,-0.14817 q 0.118533,-0.0296 0.1778,-0.23707 -0.0889,-0.0593 -0.237067,0 -0.1778,0.0593 -0.207433,0.0593 0.02963,-0.0889 0.02963,-0.1778 l 0.02963,-0.0296 q 0.207433,-0.29634 0.503766,-0.2667 0.296334,0 0.4445,0.2667 v 0.1778 q 0,0.0593 0.05927,0.11853 0,0.0593 0.02963,0.23707 0.05927,0.14816 0.0889,0.2667 0.0889,0.2667 0.0889,0.5334 0,0.38523 -0.207433,0.68156 0,0.2667 -0.207433,0.56304 -0.414867,0.68156 -0.414867,0.91863 0,0.1778 0.0889,0.3556 l 0.2667,0.3556 q 0.148167,0.0593 0.1778,0.0889 0.0889,0 0.148167,0.14817 0.02963,0.0296 0.05927,0.14816 0.05927,0.11854 0.0889,0.1778 0.05927,0.14817 0.2667,0.56304 0.05927,0.0889 0.1778,0.20743 0.05927,0.0889 0.1778,0.20743 z m 15.8242,9.18634 -0.0889,0.0593 q -0.296333,0.29634 -0.296333,0.94827 v 0.5334 q 0,0.0593 -0.02963,0.1778 0,0.0889 -0.02963,0.14817 0.05927,0.0889 0.325967,0.14816 l 0.02963,0.14817 q -0.148166,0.0593 -0.385233,0.23707 -0.1778,0.23706 -0.4445,0.32596 -0.118533,0.11854 -0.414867,0.14817 -0.118533,0.0296 -0.414866,0.11853 -0.118534,0.11854 0.02963,0.47414 0,0.23706 0.02963,0.2667 0,0.2667 -0.118533,0.47413 -0.1778,0.0889 -0.325967,0.0889 -0.237066,0 -0.385233,-0.11853 l -0.385233,-0.23707 -0.148167,0.0296 q -0.0889,0.0889 -0.118533,0.1778 0.05927,0.41487 0.05927,0.4445 0,0.59267 -0.385233,0.8001 l -0.414867,0.23707 q 0,0.0296 -0.148166,0.1778 -0.148167,0.14817 -0.1778,0.20743 l -0.118534,-0.0889 q -0.05927,-0.0593 -0.05927,-0.2667 0.02963,-0.1778 -0.02963,-0.23706 -0.237066,0.23706 -0.651933,0.23706 -0.0889,0 -0.563033,-0.0593 -0.474134,-0.0593 -0.503767,-0.0593 -0.474133,0 -0.740833,0.29633 -0.02963,-0.2667 0.1778,-0.38523 0.3556,-0.2667 0.9779,-0.3556 1.303866,-0.1778 1.629833,-0.50377 l 0.325967,-0.74083 q 0.118533,-0.29633 0.325966,-0.4445 l 0.770467,0.0296 0.118533,-0.6223 q 0.05927,-0.2667 0.385234,-0.32596 0.414866,-0.0889 0.6223,-0.20744 0.237066,-0.14816 0.3556,-0.38523 0.1778,-0.20743 0.325966,-1.03717 0.148167,-0.8001 0.563034,-0.94826 0.1778,-0.0593 0.325966,0.0889 z m -8.2677,-2.63737 q 0.05927,0.4445 -0.0889,0.889 -0.148166,0.41487 -0.414866,0.68157 l -0.118534,-0.0593 -0.05927,-0.0593 q 0.207433,-0.1778 0.385233,-0.56303 0.118533,-0.5334 0.118533,-0.7112 l -0.05927,-0.29633 q -0.0889,-0.2667 -0.05927,-0.38524 l 0.0889,-0.0296 z m 6.104467,7.34907 q 0.118533,0.14816 -0.02963,0.82973 -0.148167,0.23707 -0.325967,0.23707 h -0.148167 l -0.207433,-0.14817 0.118533,-0.56303 0.118534,-0.59267 0.237066,0.11853 z m -19.0246,-19.52837 -0.414867,0.4445 -0.385233,0.47413 q -0.5334,0 -0.9779,0.4445 -0.2667,0.32597 -0.4445,1.57057 -0.148167,1.18533 -0.8001,1.6002 h -0.148167 q -0.02963,0.0296 -0.118533,0.0593 -0.0889,0 -0.118533,0 0,-0.0296 0.02963,-0.0593 0.05927,-0.0593 0.118533,-0.14817 0.0889,-0.0889 0.148167,-0.1778 0.237067,-0.32596 0.118533,-0.6223 0,-0.11853 -0.148166,-0.50376 -0.148167,-0.38524 -0.148167,-0.5334 -0.0889,-0.23707 0.2667,-0.47414 0.325967,-0.23706 0.563033,-0.47413 l -0.0889,-0.1778 q -0.207433,0.0296 -0.474133,0.14817 -0.0889,0.0593 -0.237067,0.14816 -0.148166,0.0889 -0.237066,0.11854 l -0.05927,-0.0889 q 0,-0.56304 0.385233,-0.85937 0.02963,-0.0296 0.2667,-0.14817 l 0.414867,-0.0889 q 0.118533,-0.0296 0.414867,-0.14816 0.1778,-0.0296 0.296333,-0.14817 l -0.5334,-0.1778 q -0.0889,0 -0.237067,-0.14817 0,-0.14816 0.237067,-0.32596 0.1778,-0.0889 0.563033,-0.14817 0.148167,0 0.740834,-0.0593 l 0.948266,0.38524 z m 12.297833,15.08337 q 0,0.11853 0.02963,0.20743 0.02963,0.11853 -0.05927,0.20743 -0.207433,-0.29633 -0.503767,-0.3556 -0.148166,-0.0593 -0.889,-0.20743 -0.414866,0 -0.681566,-0.2667 v -0.0889 q 0.02963,-0.20743 0.414866,-0.29633 l 0.05927,-0.11854 q -0.148167,-0.20743 -0.474133,-0.38523 -0.3556,-0.14817 -0.8001,-0.1778 -0.918634,0 -1.452034,0.1778 -0.5334,0.20743 -0.563033,0.23707 -0.2667,0.14816 -0.563033,0.1778 -0.3556,0.11853 -1.896534,0.11853 l -0.237066,0.0593 q -0.05927,0.0296 -0.237067,0.0593 -0.1778,0 -0.2667,0 l -0.02963,-0.0889 q 0.02963,-0.0296 0.02963,-0.0593 0.02963,-0.0593 0.02963,-0.0889 0,-0.0296 0.05927,-0.20744 v -0.47413 q 0,-0.6223 -0.2667,-1.36313 -0.05927,-0.2667 -0.207433,-0.5334 -0.02963,-0.11854 -0.148167,-0.3556 -0.0889,-0.2667 -0.118533,-0.38524 l 0.237066,-0.20743 q 0.2667,0 0.385234,0.2667 l 0.148166,0.0296 0.0889,-0.0889 q 0,-0.59266 0.385234,-0.9779 0.237066,-0.14816 0.385233,-0.14816 0.118533,-0.0593 0.2667,0.0296 l 0.02963,0.0296 q 0.02963,0.0296 0.05927,0.0593 0,0.0296 0.148167,0.1778 v 0.29633 q 0,0.0296 -0.05927,0.32597 l 0.05927,0.1778 q 0.1778,-0.0593 0.325966,-0.20743 0.296334,-0.14817 0.414867,-0.1778 l 0.118533,0.0593 q 0.05927,0.20744 0,0.2667 0,0.0593 -0.3556,0.50377 -0.2667,0.1778 -0.503766,0.68157 -0.296334,0.29633 -0.5334,0.91863 -0.207434,0.50377 -0.296334,1.27423 l 0.05927,0.0889 q 0.592667,0 0.770467,-0.2667 0.02963,-0.1778 0.1778,-0.56303 l 0.325966,-0.65193 q 0.237067,-0.38524 0.296334,-0.5334 0.148166,-0.32597 0.3556,-0.59267 l 0.1778,-0.1778 0.1778,-0.0889 q 0,0.0296 0.02963,0.0593 0.02963,0.0296 0.05927,0.0593 0.02963,0.0296 0.0889,0.11854 0,0.0296 -0.05927,0.0889 -0.02963,0.0593 -0.0889,0.1778 -0.02963,0.0889 -0.0889,0.1778 l -0.5334,0.85936 q -0.2667,0.3556 -0.385233,0.82974 l 0.02963,0.11853 0.0889,0.0296 0.889,-0.82973 q 0.563033,-0.59267 2.1336,-0.889 1.570567,-0.3556 2.1336,-0.8001 0.02963,-0.1778 -0.05927,-0.32597 l -0.148166,-0.0593 q -0.118534,0 -0.3556,0.1778 -0.0889,0 -0.1778,-0.0889 -0.118534,-0.1778 0,-0.47414 0.296333,-0.29633 0.829733,-0.59266 0.563033,-0.2667 0.770467,-0.5334 l 0.05927,0.20743 v 0.11853 q 0,0.1778 -0.0889,0.5334 l -0.118533,0.50377 q -0.8001,1.2446 -2.518833,1.6002 -0.05927,0 -0.0889,0.0296 -0.05927,0.0593 -0.02963,0.11854 0.02963,0.0296 0.385234,0.0296 0.05927,0 0.1778,0 0.148166,-0.0296 0.207433,-0.0296 l 0.5334,-0.11854 0.3556,-0.11853 q 0.237067,-0.0593 1.037167,-0.32597 0.0889,0.1778 0.0889,0.3556 0,0.0889 -0.05927,0.32597 -0.02963,0.14817 -0.148167,0.4445 l -0.207433,0.29633 q -0.325967,-0.0889 -0.385233,-0.11853 -0.2667,-0.0593 -0.563034,-0.1778 -0.325966,-0.11853 -1.007533,-0.11853 -0.6223,0 -0.829733,0.11853 1.185333,0.23707 1.9558,0.68157 0.859366,0.4445 1.214966,1.2446 z m -8.830733,-2.28177 q -0.02963,0.23707 -0.3556,0.29633 l -0.207433,0.0296 q -0.3556,-0.0889 -0.474134,-0.4445 l 0.05927,-0.3556 q 0.02963,-0.11854 0.414867,-0.29634 0.237066,0 0.474133,0.14817 0.118533,0.23707 0.118533,0.3556 0.05927,0.11853 -0.02963,0.2667 z m -6.193367,-4.59317 -0.0889,0.20744 -0.2667,0.11853 q -0.0889,-0.0889 -0.207433,-0.0889 -0.148167,-0.14817 -0.148167,-0.5334 0.0889,-0.23707 0.385234,-0.23707 l 0.207433,0.0593 q 0.148167,0.29633 0.118533,0.47413 z m 0.5334,1.27424 q 0.118534,0.2667 -0.05927,0.50376 -0.0889,0.0593 -0.2667,0.2667 l -0.3556,0.0593 q -0.0889,-0.0296 -0.2667,-0.14817 -0.02963,-0.0593 -0.0889,-0.11853 -0.02963,-0.0889 -0.05927,-0.14817 -0.05927,-0.32596 0.02963,-0.5334 0.02963,-0.0296 0.296334,-0.20743 0.207433,-0.0593 0.296333,-0.0296 0.3556,0.0593 0.474133,0.3556 z m 4.8895,5.39326 -0.05927,0.11854 -0.4445,0.14816 q -0.3556,0.11854 -0.6223,0.1778 -0.325967,-0.23706 -0.770467,-0.2667 h -0.829733 q -0.118534,-0.0593 -0.148167,-0.20743 l -0.118533,-0.3556 q -0.05927,-0.14817 -0.1778,-0.38523 -0.05927,-0.20744 -0.1778,-0.23707 l -0.02963,-0.20743 q 0.118534,-0.29634 0.592667,-0.29634 l 0.118533,-0.14816 q 0.02963,-0.0296 0.02963,-0.0593 0.02963,-0.0593 0.02963,-0.0889 0,-0.0296 0,-0.0593 0.02963,-0.0593 0.05927,-0.0889 0.4445,0 0.948266,0.32597 0.118534,0.11853 0.2667,0.23707 l 0.503767,0.41486 q 0.385233,0.23707 0.503767,0.4445 0.0889,0.0889 0.118533,0.20744 z m 6.4897,5.0673 q 0,0.11854 -0.237066,0.3556 -0.02963,0 -0.0889,0 -0.05927,0.0296 -0.148167,0.0296 -0.0889,0.0296 -0.148167,0.0296 -0.237066,0 -0.3556,0.0593 l -0.02963,0.1778 q -0.118533,0.0889 -0.2667,0.0889 h -0.325967 q -0.325966,-0.11854 -0.474133,-0.4445 l -0.05927,-0.23707 q -0.05927,-0.14817 -0.118533,-0.1778 h -0.118533 l -0.148167,0.47413 -0.1778,0.0593 q -0.325967,-0.14817 -0.325967,-0.47413 v -0.20744 q 0,-0.23706 0.02963,-0.2667 0,-0.23706 -0.1778,-0.38523 h -0.118534 q -0.118533,0.1778 -0.237066,0.77047 -0.0889,0.56303 -0.4445,0.7112 l -0.148167,-0.0889 q -0.0889,-0.0889 -0.0889,-0.14817 -0.02963,-0.0296 -0.05927,-0.0889 l -0.05927,-0.0593 q -0.148167,0 -0.237067,0.0889 -0.1778,0.11854 -0.296333,0.20744 h -0.148167 l -0.05927,-0.0593 q -0.05927,-0.32597 0.207434,-0.6223 0.0889,-0.0889 0.237066,-0.14817 0.237067,-0.11853 0.3556,-0.14816 0.05927,-0.0296 0.1778,-0.0889 0.118534,-0.0296 0.148167,-0.0296 0.148167,-0.0593 0.207433,-0.14816 l -0.05927,-0.11854 q 0,-0.11853 -0.02963,-0.14816 l -0.4445,0.0889 q -0.296333,0.0889 -0.474133,0.20743 -0.05927,0.0296 -0.1778,0.0593 -0.118533,0.0593 -0.1778,0.0889 l -0.4445,0.2667 q -0.1778,0.0593 -0.918633,0.6223 -0.592667,0.41486 -0.9779,0.3556 -0.414867,0.0593 -0.563034,0.0593 -0.148166,0.0593 -0.414866,0.0593 l -0.1778,-0.0889 q 0.0889,-0.0593 0.3556,-0.2667 0.2667,-0.1778 0.414866,-0.29633 0.4445,-0.2667 0.651934,-0.47414 l 0.651933,-0.82973 0.6223,-0.85937 q 0,-0.0296 0.05927,-0.0889 0.02963,-0.0593 0.148166,-0.11853 h 0.02963 q 0.02963,0 0.05927,0 0.05927,0.0296 0.118534,0.0296 0.0889,0.0296 0.148166,0.0296 -0.0889,0.1778 -0.148166,0.23706 l -0.2667,0.32597 -0.237067,0.3556 q -0.148167,0.14817 -0.207433,0.32597 l 0.0889,0.0593 0.1778,-0.0593 q 0.02963,-0.0593 0.118533,-0.14817 0.118533,-0.0889 0.1778,-0.11853 0.05927,-0.0593 0.148167,-0.14817 0.118533,-0.0593 0.148166,-0.11853 l 0.5334,-0.56304 q 0.0889,-0.0889 0.2667,-0.0889 h 0.148167 q 0.207433,0 0.237067,0.0296 v 0.11853 l -1.0668,1.09643 0.118533,0.0296 q 0.592667,-0.32597 0.8001,-0.3556 0.503767,-0.1778 0.889,-0.1778 0.385233,0 0.740833,0.1778 0.207434,0.0296 1.096434,0.68156 0.651933,0.47414 1.185333,0.47414 h 0.118533 q 0.1778,0 0.207434,-0.0296 z m -9.897533,-5.03766 -0.0889,-0.0889 q -0.02963,-0.0296 -0.02963,-0.2667 -0.05927,-0.1778 -0.118534,-0.1778 v -0.0296 l -0.02963,-0.0296 q -0.02963,-0.0296 -0.05927,-0.0296 -0.05927,0 -0.0889,-0.0296 0,-0.20743 -0.118533,-0.41486 0,-0.14817 0.118533,-0.2667 0,0.0593 0.05927,0.29633 l 0.1778,0.3556 q 0.118533,0.23707 0.148167,0.38523 0.05927,0.20744 0.02963,0.29634 z m 0.3556,-2.16324 -0.0889,0.20744 -0.2667,0.0889 -0.148167,-0.2667 -0.385233,-0.14817 q -0.1778,-0.0593 -0.207433,-0.0889 -0.05927,0 -0.325967,-0.14817 l -0.207433,-0.14816 v 0.2667 l -0.0889,0.14816 v 0.11854 l 0.118533,0.0296 0.148167,-0.14817 0.148166,0.14817 q 0.02963,0.0593 0.207434,0.23707 0.237066,0.23706 0.503766,0.1778 0,0.0296 -0.02963,0.11853 0,0.0593 -0.02963,0.0889 0,0.0593 -0.0889,0.0889 0,-0.0593 -0.02963,-0.0889 -0.02963,-0.0889 -0.148166,-0.11853 l -0.474134,-0.0593 q -0.414866,-0.0593 -0.5334,-0.14817 l -0.118533,0.0296 -0.02963,0.14816 q 0.05927,0.0296 0.4445,0.2667 0.325966,0.0889 0.474133,0.23707 l -0.148167,0.0593 q -0.02963,0 -0.0889,0.0296 -0.05927,0.0296 -0.148166,0.0889 -0.0889,0.0296 -0.1778,0.0593 -0.296334,0.11853 -0.474134,0.29633 0.02963,0.0296 0.414867,0.0296 h 0.7112 l 0.05927,0.0593 -0.4445,0.3556 q -0.296334,0.23707 -0.4445,0.32597 0.118533,0.0296 0.5334,-0.11854 0.385233,-0.11853 0.592666,-0.0889 -0.237066,0.32597 -0.6223,0.5334 l -0.0889,0.0889 -0.02963,0.0889 q 0.148167,-0.0296 0.503767,-0.14816 0.0889,-0.0296 0.2667,-0.0593 0.1778,-0.0593 0.237066,-0.0593 0.02963,0 0.0889,-0.0593 0.05927,-0.0296 0.118534,-0.14817 v -0.14817 q 0.0889,0.0593 0.148166,0.41487 l -0.5334,0.1778 -0.4445,0.29633 q -0.325966,0.2667 -0.385233,0.41487 -0.02963,0.29633 0.2667,0.4445 l 0.118533,0.0593 -0.0889,0.20743 q -0.118533,0.11853 -0.592666,0.11853 -0.414867,-0.11853 -0.563034,-0.4445 -0.148166,-0.59266 -0.02963,-0.7112 l 0.1778,-0.23706 -0.05927,-0.0889 q -0.0889,0 -0.385233,-0.0593 -0.1778,-0.0296 -0.325967,-0.23707 -0.05927,-0.2667 0.148167,-0.38523 0.1778,-0.11853 0.237067,-0.2667 l -0.02963,-0.0889 -0.148166,-0.11853 -0.207434,-0.0296 -0.148166,-0.1778 -0.02963,-0.38523 q 0.02963,-0.0296 0.05927,-0.0889 l 0.0889,-0.11853 0.1778,-0.0296 0.148167,0.0889 0.118533,-0.14816 q -0.385233,-0.47414 -0.385233,-0.77047 0,-0.14817 0.05927,-0.38523 0.118534,-0.1778 0.474134,-0.20744 h 0.148166 l 0.0889,-0.0593 q -0.02963,-0.0593 -0.118533,-0.32597 -0.118533,-0.14817 -0.118533,-0.3556 0,-0.20743 0.118533,-0.3556 0.118533,-0.2667 0.681567,-0.29633 0.2667,0 0.474133,0.11853 0.148167,0.14817 0.148167,0.3556 l -0.148167,0.0593 -0.1778,0.0593 -0.05927,0.14817 q 0.0889,0.4445 0.592667,0.77047 z m 1.6891,6.72677 q -0.148167,0.6223 -0.8001,0.82973 -0.02963,0 -0.681567,0.23707 -0.02963,-0.0296 -0.237066,-0.0296 0.770466,-0.14817 1.2446,-0.74084 0.02963,-0.0889 0.02963,-0.23706 0.02963,-0.0593 0.02963,-0.14817 0,-0.20743 -0.148166,-0.3556 l -0.0889,-0.0296 -0.207434,0.0593 -0.118533,0.14817 -0.1778,-0.0296 q 0.02963,-0.0296 0.02963,-0.1778 0,-0.14817 0.02963,-0.1778 0.237066,-0.32597 0.651933,-0.32597 0.5334,0 0.5334,0.5334 0,0.2667 -0.0889,0.4445 z m -3.793067,-1.92617 q -0.05927,0.29634 -0.118533,0.47414 -0.0889,0.29633 -0.296333,0.65193 -0.4445,0.85937 -0.5334,1.1557 -0.02963,-0.23707 0.02963,-0.65193 0.0889,-0.29634 0.1778,-0.5334 0.118533,-0.23707 0.1778,-0.4445 0.0889,-0.23707 0.05927,-0.41487 -0.118534,-0.1778 -0.3556,-0.1778 l -0.02963,0.0296 q -0.02963,0.0296 -0.05927,0.0593 -0.02963,0 -0.148167,0.11853 -0.118533,-0.11853 -0.148167,-0.1778 -0.02963,-0.0593 0,-0.1778 0,-0.20743 0.207434,-0.29633 0.0889,-0.14817 0.503766,-0.0889 0.414867,0.1778 0.5334,0.47413 z m 22.254634,-15.79456 -0.296334,-0.1778 q -0.02963,-0.0296 -0.118533,-0.0889 -0.05927,-0.0593 -0.0889,-0.0889 -0.02963,-0.0593 -0.05927,-0.0889 l 0.207434,-0.20744 q 0.02963,-0.0296 0.0889,-0.0889 0.0889,-0.0593 0.148166,-0.11853 -0.148166,0.0296 -0.385233,0.0889 l -0.3556,0.0889 q -0.4445,0 -0.503767,-0.32597 -0.05927,-0.32596 0.02963,-0.47413 0.0889,-0.1778 0.3556,-0.4445 l -0.05927,-0.14817 -0.1778,0.11854 -0.1778,0.11853 q -0.0889,-0.0889 -0.0889,-0.23707 -0.118533,-0.20743 -0.1778,-0.23706 l -0.0889,0.0889 q 0,0.47413 -0.148167,1.12606 l -0.118533,0.0593 h -0.148167 q -0.5334,-0.4445 -0.651933,-1.00753 h -0.148167 q -0.0889,0.0889 0,0.32596 0.05927,0.2667 -0.02963,0.3556 h -0.474133 q 0.414866,0.14817 0.651933,0.50377 0.05927,0.32597 -0.118533,0.5334 l -0.325967,0.29633 q -0.474133,-0.0296 -0.563033,0 l -0.02963,0.11854 0.05927,0.0593 0.148167,0.0296 q 0.325966,0 0.3556,0.0296 0,0.2667 -0.207434,0.47413 h 0.118534 q 0.296333,-0.2667 0.414866,-0.2667 0.118534,-0.0889 0.3556,-0.0889 0.237067,0 0.3556,0.1778 0.148167,0.20744 0.148167,0.38524 l -0.05927,0.3556 q 0,0.0593 -0.02963,0.1778 0,0.0889 -0.02963,0.14816 h 0.0889 q 0.2667,-0.2667 0.3556,-0.59266 l 0.118533,-0.0889 0.207433,0.23706 q 0.2667,0.20744 0.414867,0.2667 0.02963,-0.0296 0,-0.20743 -0.1778,-0.11853 -0.325967,-0.29633 -0.0889,-0.0889 -0.0889,-0.32597 0,-0.20743 0.1778,-0.4445 l 0.207434,-0.20743 q 0.207433,-0.0889 0.5334,0.0593 0.237066,0.0889 0.503766,0.1778 z m -7.793567,0.3556 q -0.02963,-0.0296 -0.02963,-0.14817 0,-0.1778 -0.02963,-0.20743 l -0.148166,-0.0296 q -0.237067,0.32597 0,0.47414 z m -0.4445,0.0296 -0.118533,-0.11853 -0.0889,0.0296 q -0.02963,0.0296 -0.02963,0.38523 l 0.0889,0.0889 0.118534,-0.0296 q 0.05927,-0.0593 0.02963,-0.3556 z m -0.3556,0.1778 -0.05927,-0.0593 h -0.118533 q -0.02963,0.0296 -0.02963,0.3556 l 0.0889,0.0889 0.0889,-0.0296 z m -8.415867,-0.77047 q 0.0889,-0.0889 0.118534,-0.14816 l 0.118533,-0.1778 q 0.02963,-0.0296 0.02963,-0.20744 l -0.207433,0.11854 -0.237067,0.1778 -0.02963,0.20743 0.0889,0.0889 z m 18.076334,9.6012 q 0,-1.3335 -0.5334,-2.51883 -0.474134,-1.12607 -1.363134,-1.89653 -0.296333,-0.1778 -0.385233,-0.29634 -0.02963,-0.0296 -0.0889,-0.0593 -0.118533,-0.0889 -0.1778,-0.11854 -0.7112,-0.5334 -0.9779,-0.6223 -0.02963,0 -0.148167,-0.0296 -0.118533,-0.0593 -0.1778,-0.0889 -0.237066,-0.0296 -0.4445,-0.1778 -0.237066,-0.11853 -0.770466,-0.11853 l -0.503767,-0.0889 -0.740833,0.6223 q -0.207434,0.20743 -0.563034,0.50376 -0.237066,0.23707 -0.4445,0.3556 l -0.5334,0.3556 -0.474133,0.32597 q -0.0889,0.0296 -0.207433,0.0889 -0.02963,0 -0.0889,0.0296 -0.02963,0 -0.05927,0.0296 -0.592667,0.14816 -0.681567,0.14816 -0.05927,0 -0.118533,-0.0296 -0.148167,0 -0.237067,-0.0296 l -0.118533,0.0296 q -0.2667,-0.0593 -0.651933,-0.29633 -0.414867,-0.29634 -0.474134,-0.32597 -0.325966,-0.2667 -0.474133,-0.56303 l -0.4445,-0.6223 q -0.118533,-0.11854 -0.385233,-0.47414 -0.237067,0.1778 -0.414867,0.2667 -0.118533,0.11854 -0.474133,0.41487 -0.148167,0.14817 -0.859367,0.77047 -0.503767,0.38523 -0.563033,0.41486 -0.681567,0.5334 -1.007534,0.65194 -0.3556,0.23706 -0.9779,0.14816 -1.9558,-0.6223 -2.992966,-2.37066 -0.474134,-0.82974 -0.474134,-1.83727 0,-0.50377 0.237067,-1.45203 0.414867,-1.1557 0.948267,-1.89654 0.6223,-0.77046 1.452033,-1.39276 0.1778,-0.2667 0.651933,-0.4445 1.1557,1.2446 2.667,1.9558 1.540934,0.68156 3.230034,0.68156 0.8001,0 1.6002,-0.1778 1.363133,-0.32596 2.726266,-1.0668 1.4224,-0.77046 2.370667,-1.778 0.05927,-0.20743 0.0889,-0.23706 v -0.2667 l -0.148167,-0.0593 q -0.237066,0.0593 -0.5334,0.2667 -0.0889,0.0889 -0.503766,0.32597 -1.659467,0.85936 -3.0226,0.85936 -1.2446,0 -2.341034,-0.56303 -0.118533,-0.0593 -0.3556,-0.1778 -0.207433,-0.11853 -0.296333,-0.1778 -0.118533,-0.0889 -0.3556,-0.2667 -0.237067,-0.1778 -0.3556,-0.2667 -0.1778,-0.14817 -0.4445,-0.32597 -0.237067,-0.20743 -0.325967,-0.29633 -0.296333,-0.20743 -0.3556,-0.2667 -1.303866,0.2667 -1.540933,0.29633 -0.8001,0.14817 -1.985433,0.68157 -0.0889,0.0889 -0.385234,0.11853 l -0.0889,0.0889 q -0.02963,0.0296 -0.207433,0.11854 -0.148167,0.0593 -0.237067,0.11853 -0.2667,0.0593 -0.474133,0.2667 -1.007533,0.65193 -1.6891,1.3335 -0.8001,0.7112 -1.481667,1.74837 -0.474133,0.74083 -0.7112,1.21496 -0.1778,0.29634 -0.503766,1.09644 -0.474134,1.12606 -0.474134,2.5781 0,0.20743 0.05927,0.74083 0.05927,0.4445 0.1778,0.91863 0.740833,2.60774 3.1115,3.76344 l 0.859367,-0.7112 0.889,-0.74084 0.681566,-0.47413 0.7112,-0.50377 q 0.385234,-0.20743 0.651934,-0.2667 0.207433,-0.0889 0.474133,-0.0889 0.0889,0 0.148167,0.0296 0.148166,0 0.237066,0.0296 l 0.592667,0.29633 q 0.2667,0.29634 0.563033,0.56304 0.474134,0.50376 0.592667,0.77046 0.118533,0.2667 0.3556,0.41487 l 1.540933,-1.09643 q 0.7112,-0.50377 0.829734,-0.56304 1.452033,-0.82973 2.7559,-0.82973 0.237066,0 0.7112,0.0593 0.296333,0.0593 0.7112,0.1778 0.563033,0.2667 0.859366,0.47413 0.237067,0.14817 0.7112,0.50377 0.859367,0.77046 1.392767,1.80763 0.4445,0.9779 0.4445,2.2225 -0.118533,1.30387 -0.681567,2.4003 -0.592666,1.0668 -1.5113,1.6891 l -0.2667,0.14817 -0.1778,0.11853 -0.1778,0.11853 q -0.296333,0.0296 -0.3556,-0.0296 -0.681566,-0.82973 -1.481666,-1.30387 -0.770467,-0.5334 -1.9558,-1.03716 -1.126067,-0.50377 -2.429934,-0.8001 -1.303866,-0.29634 -2.726266,-0.29634 -0.414867,0 -0.6223,0.0296 -0.207434,0.0296 -0.681567,0.0889 -0.1778,0.0296 -1.2446,0.2667 -0.414867,0.11853 -0.6223,0.23706 l -0.681567,0.2667 -0.5334,0.2667 -0.651933,0.3556 -0.0889,0.0889 q -0.0889,0.0889 -0.325967,0.20744 l -0.296333,0.1778 -0.9779,0.7112 -0.770467,0.74083 -0.296333,0.32597 -0.6223,0.6223 q -0.207433,0.29633 -0.3556,0.68156 l 0.02963,0.14817 1.570567,-1.30387 0.414867,-0.2667 q 0.1778,-0.0593 0.385233,-0.2667 1.985433,-1.09643 4.3561,-1.09643 0.859367,0 1.540933,0.11853 0.829734,0.0889 1.452034,0.38524 1.126066,0.59266 1.837266,1.12606 0.4445,0.29634 0.859367,0.74084 0.296333,0.2667 0.7112,0.8001 0.296333,0 0.770467,-0.0593 0.05927,0 1.0668,-0.20743 l 0.7112,-0.1778 q 0.2667,-0.0296 0.740833,-0.20744 0.296333,-0.11853 0.740833,-0.3556 l 0.592667,-0.38523 q 0.296333,-0.23707 0.6223,-0.3556 l 1.096433,-0.74083 q 0.651934,-0.47414 0.948267,-0.74084 l 0.948267,-0.94826 q 0.592666,-0.8001 0.740833,-1.0668 0.5334,-0.7112 0.918633,-1.83727 0.296334,-1.2446 0.296334,-2.10397 z m -12.060767,1.8669 q 0.02963,-0.20743 -0.237067,-0.41486 l -0.05927,0.0593 q -0.05927,0.3556 0.207433,0.4445 z m -0.503767,0.14817 q 0.05927,-0.20743 -0.1778,-0.4445 l -0.118533,0.0296 v 0.2667 q 0.05927,0.0593 0.296333,0.14817 z m -0.503766,0.20743 q 0.118533,-0.11853 -0.02963,-0.38523 l -0.0889,-0.0296 -0.0889,0.0889 q 0,0.20743 0.118534,0.32596 z m -2.637367,-2.99296 -0.0889,-0.0889 -0.118533,0.0593 q 0,0.32597 -0.2667,1.57057 -0.118534,0.3556 -0.118534,0.889 0,0.32597 0.02963,0.3556 0.118533,-0.38523 0.237066,-0.91863 0.148167,-0.5334 0.207434,-0.7112 0.118533,-0.7112 0.118533,-1.1557 z m -3.970867,3.17076 -0.05927,-0.0889 -0.0889,-0.0296 q -0.05927,0 -0.237067,0.1778 -0.207433,0.1778 -0.237067,0.50377 v 0.56303 l 0.1778,0.1778 q 0.05927,0 0.1778,-0.11853 -0.0889,-0.29634 0,-0.56304 0.0889,-0.2667 0.2667,-0.6223 z m -0.4445,-0.14816 -0.05927,-0.0889 h -0.148167 l -0.207433,0.1778 -0.148167,0.29633 q -0.05927,0.1778 -0.0889,0.5334 0,0.32597 0.207433,0.5334 0,-0.11853 0.02963,-0.38523 0.05927,-0.29634 0.0889,-0.4445 0.0889,-0.38524 0.325966,-0.6223 z m 17.5133,-11.7348 -0.05927,0.11853 -0.1778,0.0889 q -0.1778,0.0593 -0.296334,0.0593 l -0.148166,-0.0296 q -0.118534,-0.20743 -0.148167,-0.2667 -0.118533,-0.11853 -0.05927,-0.2667 l 0.05927,-0.14816 v -0.0593 q 0.237067,-0.23707 0.503767,-0.1778 0.0889,0 0.296333,0.20743 0.02963,0.0889 0.02963,0.2667 0.02963,0.11854 0,0.20744 z m -0.1778,-0.32597 q -0.05927,-0.0593 -0.05927,-0.0889 -0.02963,0 -0.0889,-0.0296 -0.02963,-0.0593 -0.0889,-0.0889 l -0.207434,0.0296 q -0.148166,0.23707 -0.148166,0.3556 l 0.05927,0.11853 q 0.02963,0.0593 0.296334,0.11854 l 0.207433,-0.14817 q 0.02963,-0.0296 0.02963,-0.2667 z"
         style=""
         id="path920" />
    </g>
    <g
       aria-label="DHAMMA READER"
       style="font-style:normal;font-variant:normal;font-weight:normal;font-stretch:normal;font-size:3.17499995px;line-height:5.29166651px;font-family:'Source Serif Pro';-inkscape-font-specification:'Source Serif Pro, Normal';font-variant-ligatures:normal;font-variant-caps:normal;font-variant-numeric:normal;font-feature-settings:normal;text-align:start;letter-spacing:0.13229167px;word-spacing:0.26458332px;writing-mode:lr-tb;text-anchor:start;fill:#000000;fill-opacity:1;stroke:none;stroke-width:0.26458332px;stroke-linecap:butt;stroke-linejoin:miter;stroke-opacity:1"
       id="text901">
      <path
         d="m 41.970479,146.85711 c -0.0063,-0.2794 -0.0063,-0.56198 -0.0063,-0.87313 v -0.11747 c 0,-0.28258 0,-0.56515 0.0063,-0.8382 h 0.2794 c 0.441325,0 0.733425,0.32067 0.733425,0.9144 0,0.5969 -0.2921,0.9144 -0.73025,0.9144 z m -0.606425,-1.97485 v 0.13017 l 0.2921,0.0349 c 0.0063,0.27305 0.0063,0.5461 0.0063,0.81915 v 0.11747 c 0,0.30798 0,0.58738 -0.0063,0.85725 l -0.2921,0.0349 v 0.13017 h 0.8763 c 0.5969,0 1.089025,-0.37465 1.089025,-1.06362 0,-0.6858 -0.441325,-1.06045 -1.0287,-1.06045 z"
         style=""
         id="path923" />
      <path
         d="m 45.883054,145.01243 v -0.13017 h -0.89535 v 0.13017 l 0.2921,0.0349 c 0.0064,0.26352 0.0064,0.53022 0.0064,0.79692 h -1.025525 c 0,-0.26987 0,-0.53657 0.0063,-0.8001 l 0.288925,-0.0318 v -0.13017 h -0.89535 v 0.13017 l 0.2921,0.0349 c 0.0063,0.27305 0.0063,0.5461 0.0063,0.81915 v 0.15557 c 0,0.27623 0,0.55245 -0.0063,0.81915 l -0.2921,0.0349 v 0.13017 h 0.89535 v -0.13017 l -0.288925,-0.0317 c -0.0063,-0.2667 -0.0063,-0.53975 -0.0063,-0.8509 h 1.025525 c 0,0.31432 0,0.58737 -0.0064,0.84772 l -0.2921,0.0349 v 0.13017 h 0.89535 v -0.13017 l -0.2921,-0.0349 c -0.0064,-0.27305 -0.0064,-0.5461 -0.0064,-0.81915 v -0.15557 c 0,-0.27623 0,-0.55245 0.0064,-0.81915 z"
         style=""
         id="path925" />
      <path
         d="m 46.815793,146.16813 0.3175,-0.93027 0.314325,0.93027 z m 1.171575,0.67945 -0.676275,-1.96532 h -0.200025 l -0.6731,1.95262 -0.269875,0.0413 v 0.13017 h 0.727075 v -0.13017 l -0.307975,-0.0413 0.1778,-0.51752 h 0.733425 l 0.174625,0.5207 -0.31115,0.0381 v 0.13017 h 0.8636 v -0.13017 z"
         style=""
         id="path927" />
      <path
         d="m 51.082878,145.01243 v -0.13017 h -0.542925 l -0.752475,1.70497 -0.73025,-1.70497 h -0.568325 v 0.13017 l 0.28575,0.0318 v 1.7907 l -0.288925,0.0413 v 0.13017 h 0.7112 v -0.13017 l -0.263525,-0.0413 0.0032,-1.50812 0.73025,1.67957 h 0.09842 l 0.727075,-1.66687 v 0.68262 c 0,0.27623 0,0.55245 -0.0063,0.82233 l -0.2667,0.0317 v 0.13017 h 0.8636 v -0.13017 l -0.2921,-0.0349 c -0.0064,-0.27305 -0.0064,-0.5461 -0.0064,-0.81915 v -0.15557 c 0,-0.27623 0,-0.55245 0.0064,-0.81915 z"
         style=""
         id="path929" />
      <path
         d="m 54.080111,145.01243 v -0.13017 h -0.542925 l -0.752475,1.70497 -0.73025,-1.70497 h -0.568325 v 0.13017 l 0.28575,0.0318 v 1.7907 l -0.288925,0.0413 v 0.13017 h 0.7112 v -0.13017 l -0.263525,-0.0413 0.0032,-1.50812 0.73025,1.67957 h 0.09843 l 0.727075,-1.66687 v 0.68262 c 0,0.27623 0,0.55245 -0.0064,0.82233 l -0.2667,0.0317 v 0.13017 h 0.8636 v -0.13017 l -0.2921,-0.0349 c -0.0063,-0.27305 -0.0063,-0.5461 -0.0063,-0.81915 v -0.15557 c 0,-0.27623 0,-0.55245 0.0063,-0.81915 z"
         style=""
         id="path931" />
      <path
         d="m 55.019944,146.16813 0.3175,-0.93027 0.314325,0.93027 z m 1.171575,0.67945 -0.676275,-1.96532 h -0.200025 l -0.6731,1.95262 -0.269875,0.0413 v 0.13017 h 0.727075 v -0.13017 l -0.307975,-0.0413 0.1778,-0.51752 h 0.733425 l 0.174625,0.5207 -0.31115,0.0381 v 0.13017 h 0.8636 v -0.13017 z"
         style=""
         id="path933" />
      <path
         d="m 58.471648,145.87921 c 0,-0.31115 0,-0.57785 0.0063,-0.8509 h 0.27305 c 0.327025,0 0.466725,0.14605 0.466725,0.40005 0,0.2667 -0.15875,0.45085 -0.50165,0.45085 z m 1.00965,0.9652 -0.136525,-0.46673 c -0.06668,-0.23177 -0.1651,-0.34925 -0.327025,-0.3937 0.36195,-0.0667 0.51435,-0.2921 0.51435,-0.5588 0,-0.33655 -0.28575,-0.54292 -0.771525,-0.54292 h -0.889 v 0.13017 l 0.2921,0.0349 c 0.0063,0.27305 0.0063,0.5461 0.0063,0.81915 v 0.15557 c 0,0.27623 0,0.55245 -0.0063,0.81915 l -0.2921,0.0349 v 0.13017 h 0.898525 v -0.13017 l -0.2921,-0.0349 c -0.0063,-0.26352 -0.0063,-0.5334 -0.0063,-0.81915 h 0.1397 c 0.254,0 0.36195,0.0476 0.42545,0.3048 l 0.123825,0.508 c 0.0381,0.1524 0.149225,0.2032 0.3556,0.2032 0.09843,0 0.174625,-0.0127 0.238125,-0.0318 v -0.13017 z"
         style=""
         id="path935" />
      <path
         d="m 61.554755,146.44118 -0.06985,0.4064 H 60.67528 c -0.0063,-0.27305 -0.0063,-0.54927 -0.0063,-0.8509 h 0.4699 l 0.04127,0.29845 h 0.14605 v -0.7493 h -0.14605 l -0.04445,0.30163 H 60.66893 c 0,-0.27305 0,-0.54293 0.0063,-0.80645 h 0.746125 l 0.06985,0.40322 h 0.180975 l -0.02222,-0.56197 h -1.58115 v 0.13017 l 0.2921,0.0349 c 0.0064,0.27305 0.0064,0.5461 0.0064,0.81915 v 0.15557 c 0,0.27623 0,0.55245 -0.0064,0.81915 l -0.2921,0.0349 v 0.13017 h 1.64465 l 0.02222,-0.56515 z"
         style=""
         id="path937" />
      <path
         d="m 62.641185,146.16813 0.3175,-0.93027 0.314325,0.93027 z m 1.171575,0.67945 -0.676275,-1.96532 H 62.93646 l -0.6731,1.95262 -0.269875,0.0413 v 0.13017 h 0.727075 v -0.13017 l -0.307975,-0.0413 0.1778,-0.51752 h 0.733425 l 0.174625,0.5207 -0.31115,0.0381 v 0.13017 h 0.8636 v -0.13017 z"
         style=""
         id="path939" />
      <path
         d="m 64.933419,146.85711 c -0.0063,-0.2794 -0.0063,-0.56198 -0.0063,-0.87313 v -0.11747 c 0,-0.28258 0,-0.56515 0.0063,-0.8382 h 0.2794 c 0.441325,0 0.733425,0.32067 0.733425,0.9144 0,0.5969 -0.2921,0.9144 -0.73025,0.9144 z m -0.606425,-1.97485 v 0.13017 l 0.2921,0.0349 c 0.0063,0.27305 0.0063,0.5461 0.0063,0.81915 v 0.11747 c 0,0.30798 0,0.58738 -0.0063,0.85725 l -0.2921,0.0349 v 0.13017 h 0.8763 c 0.5969,0 1.089025,-0.37465 1.089025,-1.06362 0,-0.6858 -0.441325,-1.06045 -1.0287,-1.06045 z"
         style=""
         id="path941" />
      <path
         d="m 68.109393,146.44118 -0.06985,0.4064 h -0.809625 c -0.0063,-0.27305 -0.0063,-0.54927 -0.0063,-0.8509 h 0.4699 l 0.04127,0.29845 h 0.14605 v -0.7493 h -0.14605 l -0.04445,0.30163 h -0.466725 c 0,-0.27305 0,-0.54293 0.0063,-0.80645 h 0.746125 l 0.06985,0.40322 h 0.180975 l -0.02222,-0.56197 h -1.58115 v 0.13017 l 0.2921,0.0349 c 0.0063,0.27305 0.0063,0.5461 0.0063,0.81915 v 0.15557 c 0,0.27623 0,0.55245 -0.0063,0.81915 l -0.2921,0.0349 v 0.13017 h 1.64465 l 0.02223,-0.56515 z"
         style=""
         id="path943" />
      <path
         d="m 69.272023,145.87921 c 0,-0.31115 0,-0.57785 0.0063,-0.8509 h 0.27305 c 0.327025,0 0.466725,0.14605 0.466725,0.40005 0,0.2667 -0.15875,0.45085 -0.50165,0.45085 z m 1.00965,0.9652 -0.136525,-0.46673 c -0.06668,-0.23177 -0.1651,-0.34925 -0.327025,-0.3937 0.36195,-0.0667 0.51435,-0.2921 0.51435,-0.5588 0,-0.33655 -0.28575,-0.54292 -0.771525,-0.54292 h -0.889 v 0.13017 l 0.2921,0.0349 c 0.0063,0.27305 0.0063,0.5461 0.0063,0.81915 v 0.15557 c 0,0.27623 0,0.55245 -0.0063,0.81915 l -0.2921,0.0349 v 0.13017 h 0.898525 v -0.13017 l -0.2921,-0.0349 c -0.0063,-0.26352 -0.0063,-0.5334 -0.0063,-0.81915 h 0.1397 c 0.254,0 0.36195,0.0476 0.42545,0.3048 l 0.123825,0.508 c 0.0381,0.1524 0.149225,0.2032 0.3556,0.2032 0.09843,0 0.174625,-0.0127 0.238125,-0.0318 v -0.13017 z"
         style=""
         id="path945" />
    </g>
  </g>
</svg>
